<?xml version="1.0" encoding="UTF-8" standalone="no"?>
<!-- Created with Inkscape (http://www.inkscape.org/) -->

<svg
   width="512"
   height="512"
   viewBox="0 0 512 512"
   version="1.1"
   id="svg1"
   xml:space="preserve"
   sodipodi:docname="favicon.svg"
   inkscape:version="1.3.2 (091e20e, 2023-11-25)"
   xmlns:inkscape="http://www.inkscape.org/namespaces/inkscape"
   xmlns:sodipodi="http://sodipodi.sourceforge.net/DTD/sodipodi-0.dtd"
   xmlns="http://www.w3.org/2000/svg"
   xmlns:svg="http://www.w3.org/2000/svg"><sodipodi:namedview
     id="namedview1"
     pagecolor="#ffffff"
     bordercolor="#000000"
     borderopacity="0.25"
     inkscape:showpageshadow="2"
     inkscape:pageopacity="0.0"
     inkscape:pagecheckerboard="0"
     inkscape:deskcolor="#d1d1d1"
     inkscape:zoom="0.6891529"
     inkscape:cx="308.34957"
     inkscape:cy="261.91575"
     inkscape:window-width="1366"
     inkscape:window-height="699"
     inkscape:window-x="0"
     inkscape:window-y="32"
     inkscape:window-maximized="1"
     inkscape:current-layer="layer1"
     showgrid="false"
     inkscape:export-bgcolor="#ffffffff" /><defs
     id="defs1"><linearGradient
       id="swatch2"><stop
         style="stop-color:#003399;stop-opacity:0;"
         offset="0"
         id="stop2" /></linearGradient></defs><g
     id="layer1"><path
       style="fill:#000000;stroke-width:0.873927"
       d="m 236.781,477.07847 c -17.13363,-1.83336 -31.0232,-4.77184 -46.17541,-9.7689 -9.20944,-3.03718 -26.80637,-10.01976 -30.0438,-11.92157 -0.92706,-0.5446 -0.25902,-2.58252 3.51534,-10.72375 7.69767,-16.60374 10.28745,-21.66057 10.94869,-21.37855 0.34586,0.14751 5.6133,2.58161 11.70543,5.4091 22.10484,10.25939 44.45876,15.14126 69.33121,15.14126 25.03722,0 47.90808,-5.04744 70.12206,-15.47546 6.0758,-2.8522 11.31419,-4.93205 11.64085,-4.62191 0.90281,0.85719 13.82392,29.28139 13.82392,30.41025 0,2.35761 -29.7959,13.90213 -45.53616,17.64313 -18.92314,4.49749 -24.46323,5.14001 -46.35847,5.37654 -11.05607,0.11943 -21.39422,0.0789 -22.97366,-0.0901 z m 200.24893,-4.89128 -52.87148,-0.39146 -8.51391,-18.38444 c -14.01541,-30.26408 -24.6415,-53.07839 -29.16491,-62.61733 l -4.26595,-8.99604 -86.24199,-0.005 -86.24198,-0.005 -9.89926,20.874 c -8.33101,17.56716 -24.61335,52.46964 -30.73251,65.87758 l -1.6606,3.63858 h -53.202017 -53.202 l 0.707334,-1.72353 c 0.389029,-0.94795 13.900281,-29.47256 30.024998,-63.38802 16.124718,-33.91547 31.072346,-65.45628 33.216956,-70.09069 2.1446,-4.6344 8.04832,-17.38862 13.11936,-28.34268 5.071039,-10.95406 13.202859,-28.70653 18.070709,-39.44994 4.86785,-10.74341 11.5117,-25.22116 14.76411,-32.17277 3.25241,-6.95162 8.04972,-17.29286 10.66069,-22.98056 5.79813,-12.63056 24.79905,-52.9098 42.45909,-90.00715 7.22026,-15.16716 15.83625,-33.436698 19.14664,-40.598978 3.31039,-7.162271 9.7474,-20.950596 14.30446,-30.64073 l 8.28557,-17.618587 29.99497,-0.20084 29.99497,-0.200831 1.68695,3.647918 c 0.92783,2.006357 4.8898,10.369724 8.80438,18.585277 6.49898,13.639434 13.70275,28.870972 21.73733,45.961101 1.6836,3.58114 11.84229,25.1254 22.57486,47.87614 25.00483,53.00486 27.38799,58.16032 27.03811,58.49145 -0.15927,0.15072 -2.98818,-1.296 -6.28646,-3.21495 -22.34848,-13.00241 -55.69433,-20.37598 -88.35974,-19.53845 l -11.56927,0.29663 -2.80841,-4.96684 -2.80842,-4.96684 -1.29085,2.65288 c -1.5176,3.11884 -22.27167,48.55608 -26.75364,58.57222 -4.9918,11.15544 -23.36107,50.8044 -26.57268,57.3555 -1.6265,3.31776 -2.95727,6.33395 -2.95727,6.70267 0,0.37682 25.32957,0.67038 57.84439,0.67038 31.81442,0 57.84439,-0.14023 57.84439,-0.31161 0,-0.17138 -1.14639,-2.67051 -2.54755,-5.55363 -3.97785,-8.18512 -8.11253,-17.37741 -7.90077,-17.56512 0.54594,-0.48393 15.87534,3.66547 21.22964,5.74649 13.1652,5.11684 27.83529,16.41686 37.04334,28.5336 8.41677,11.07548 15.24479,26.15571 17.09151,37.74793 1.25122,7.85409 3.29117,10.68854 7.91949,11.00388 2.79014,0.19011 3.8454,-0.13321 5.51148,-1.68871 2.49228,-2.3268 2.7206,-6.59378 0.8112,-15.15723 -4.48126,-20.09757 -14.88535,-37.98078 -30.70174,-52.77227 -17.40901,-16.28091 -37.08794,-25.39599 -60.22213,-27.89429 l -4.79139,-0.51742 -4.86297,-9.62034 c -2.67463,-5.29118 -5.09614,-10.48775 -5.38115,-11.54792 l -0.51819,-1.92758 10.17254,0.53288 c 22.89776,1.19948 43.78349,7.68371 62.66315,19.45455 10.08322,6.28656 24.72912,19.69011 30.32038,27.74841 2.19237,3.15982 4.76395,6.85833 5.71442,8.21891 2.33901,3.34794 5.47229,4.52048 8.72185,3.26384 1.36454,-0.52767 2.81536,-1.51744 3.22427,-2.19948 0.83318,-1.39008 0.33172,-2.34826 14.03703,26.82203 4.62522,9.84445 18.00091,38.06443 29.72367,62.71106 29.82478,62.70613 39.96728,84.18451 39.96728,84.63763 0,0.21521 -0.2769,0.30892 -0.61534,0.20823 -0.33844,-0.10068 -24.40758,-0.3592 -53.48694,-0.57451 z m -10.41664,-34.53487 c 4.56441,-3.35205 1.72882,-10.66867 -4.13481,-10.66867 -3.76684,0 -6.01064,2.26694 -6.01064,6.07255 0,2.33773 0.48195,3.36246 2.16183,4.59612 1.18901,0.87319 2.98536,1.58763 3.99186,1.58763 1.0064,0 2.80275,-0.71444 3.99176,-1.58763 z M 94.836601,434.64384 c 2.09654,-1.95736 2.07877,-3.8699 -0.0595,-6.40786 -3.17507,-3.76848 -9.23931,-1.58097 -9.23931,3.33284 0,4.37294 5.84009,6.30417 9.29886,3.07502 z m 16.668829,-33.82993 c 2.55708,-1.2715 3.78725,-3.00929 3.81729,-5.39247 0.0875,-6.94087 -8.44804,-9.86435 -12.60867,-4.31856 -4.089429,5.45086 2.56854,12.8053 8.79138,9.71103 z m 288.14241,-4.86449 c 0,-2.14337 -2.40323,-1.90585 -2.73321,0.27014 -0.21075,1.38942 0.0653,1.73104 1.23069,1.52155 0.85498,-0.15372 1.50252,-0.92593 1.50252,-1.79169 z M 262.75453,351.8399 c 5.08261,-2.9327 6.72054,-9.3521 3.83482,-15.02958 -4.13911,-8.14348 -16.86647,-7.81738 -21.43417,0.54918 -2.03075,3.71968 -1.93167,6.80179 0.35111,10.92317 2.77604,5.01188 11.58032,6.82764 17.24824,3.55723 z m -131.36551,-4.08963 c 1.80178,-2.56731 1.21344,-5.72525 -1.40513,-7.54222 -5.63747,-3.91173 -11.78763,3.53052 -6.78061,8.20515 2.05414,1.91778 6.63491,1.5468 8.18574,-0.66293 z m 90.97484,-1.63627 c 2.65313,-2.47699 0.64194,-6.45644 -3.26303,-6.45644 -1.19989,0 -2.50064,0.75082 -3.31771,1.91504 -1.24503,1.774 -1.24503,2.05609 0,3.8301 1.54532,2.20189 4.62734,2.53502 6.58074,0.7113 z m 73.12141,-0.65994 c 1.49739,-2.13359 0.66722,-4.41855 -2.10941,-5.80589 -3.618,-1.80776 -6.92113,2.40352 -4.54301,5.79203 1.73272,2.46891 4.92477,2.47556 6.65242,0.0139 z M 159.03104,304.90214 c 5.15088,-1.44728 8.98007,-4.37664 11.60353,-8.87679 4.09344,-7.02172 3.69166,-14.37295 -1.12483,-20.58051 -3.95861,-5.10193 -8.27692,-7.31998 -14.93503,-7.67122 -7.61486,-0.40171 -11.83421,1.15446 -16.62858,6.13295 -14.1724,14.71666 0.78201,36.7002 21.08491,30.99557 z m 21.32951,-66.83201 c 0.86276,-1.76784 0.75461,-2.1743 -0.91427,-3.43596 -3.26261,-2.46652 -6.9034,0.62239 -4.50369,3.82103 1.67792,2.23652 4.22696,2.05536 5.41796,-0.38507 z m 27.26499,-39.68262 c 6.82176,-2.66108 7.11766,-12.92204 0.46525,-16.13376 -4.1657,-2.01116 -8.01847,-1.51431 -11.18549,1.44246 -2.32407,2.16979 -2.78765,3.1606 -2.77757,5.93665 0.016,4.40782 1.44295,6.87242 4.92225,8.50161 3.46925,1.6245 4.94797,1.66812 8.57556,0.25304 z m 113.72882,-31.79118 c 4.39979,-4.1077 2.61522,-9.85923 -4.03799,-13.01421 -7.14779,-3.38951 -25.81062,-6.9612 -36.3738,-6.9612 -5.80058,0 -6.70868,0.2007 -8.50764,1.88023 -3.19162,2.97974 -2.50518,8.49077 1.29403,10.38906 0.89616,0.44777 5.77984,1.14939 10.85266,1.55917 12.56449,1.01495 22.43127,3.37316 25.86671,6.18229 3.68808,3.01572 7.65178,3.00287 10.90603,-0.0354 z m -97.40281,-24.29296 c 4.11395,-3.84084 1.84787,-10.41378 -3.93971,-11.42745 -3.41728,-0.59853 -5.80117,0.53857 -7.47877,3.56734 -3.77294,6.81168 5.61764,13.27585 11.41848,7.86011 z m 66.81755,-24.94435 c 2.60903,-2.43582 -0.2117,-6.74254 -3.34416,-5.1059 -2.46773,1.28933 -1.32248,6.02513 1.45704,6.02513 0.49639,0 1.3456,-0.41364 1.88712,-0.91923 z m -66.29541,-15.55016 c 0,-1.26112 -2.24746,-2.092038 -2.91814,-1.07889 -0.28007,0.42308 -0.30588,1.26399 -0.0573,1.86867 0.53334,1.29761 2.97547,0.64939 2.97547,-0.78978 z m 37.21238,-3.027502 c 1.7447,-1.50959 2.17103,-2.574122 2.17103,-5.421048 0,-4.860172 -3.23319,-8.020849 -8.20488,-8.020849 -2.67295,0 -3.92556,0.483033 -5.80652,2.239135 -5.38138,5.024116 -1.66496,13.081234 6.03384,13.081234 2.72178,0 4.18115,-0.47212 5.80653,-1.878472 z M 250.05619,424.16336 c -1.49838,-0.68935 -3.7137,-2.46438 -4.92293,-3.94452 -1.84288,-2.25575 -2.1986,-3.46633 -2.1986,-7.48223 0,-5.37793 1.38628,-7.80546 6.2291,-10.90786 2.3343,-1.49538 3.57752,-1.74029 7.52509,-1.4824 5.51133,0.36003 8.35774,2.01087 11.05207,6.40983 6.31412,10.30897 -6.24448,22.67046 -17.68473,17.40718 z m -40.63436,-8.5388 c -2.58002,-2.66162 -0.87528,-7.02535 2.74454,-7.02535 3.69804,0 5.43115,4.76806 2.60198,7.15846 -1.95021,1.64773 -3.66158,1.60513 -5.34652,-0.13311 z m 87.79219,0 c -0.74684,-0.77046 -1.3579,-2.09587 -1.3579,-2.94535 0,-1.76866 2.40481,-4.08 4.245,-4.08 3.09767,0 5.23633,5.39605 2.9753,7.50698 -1.44996,1.3537 -4.31121,1.11863 -5.8624,-0.48163 z M 9.2258103,396.76642 c -0.7881684,-1.91759 0.329739,-3.58979 2.2305907,-3.33658 1.244518,0.16578 1.741666,0.77865 1.741666,2.14706 0,2.23194 -3.155415,3.17685 -3.9722567,1.18952 z m 487.9686497,0.0132 c -0.81699,-1.98756 0.32804,-3.6303 2.34407,-3.36303 1.35607,0.17977 1.8498,0.75637 1.8498,2.16028 0,1.4039 -0.49373,1.98049 -1.8498,2.16027 -1.10953,0.1471 -2.04758,-0.23608 -2.34407,-0.95752 z M 46.396705,360.70269 c -2.762072,-5.9419 -8.708527,-22.92989 -10.999291,-31.42302 -2.657871,-9.85423 -5.097397,-23.61932 -6.170513,-34.8172 -5.761108,-60.11699 19.652161,-125.15796 66.01995,-168.96688 15.377919,-14.52926 28.245379,-23.84921 47.451489,-34.369276 16.02866,-8.779642 41.57144,-19.243919 41.57144,-17.030853 0,0.538642 -0.29833,1.306824 -0.66297,1.707076 -0.36464,0.400244 -2.37857,4.347151 -4.4754,8.770908 -2.09683,4.423757 -6.44741,13.558527 -9.66795,20.299485 -3.22054,6.74097 -6.58033,13.80749 -7.46622,15.70338 -1.25419,2.68408 -2.63864,4.03098 -6.25466,6.085 -42.81201,24.31867 -77.905593,75.92208 -85.977629,126.42596 -2.394762,14.98322 -1.634476,39.6205 1.684677,54.5924 1.011675,4.56344 0.996441,5.51261 -0.129094,8.0432 -1.106409,2.4876 -16.821785,35.64096 -21.502913,45.36283 l -1.649987,3.42673 z M 77.606361,194.88008 c 0,-0.84261 -0.532042,-1.53203 -1.182303,-1.53203 -1.44947,0 -2.376189,1.26059 -1.689406,2.29805 0.892277,1.34789 2.871709,0.81988 2.871709,-0.76602 z m 11.48683,-32.93878 c 0,-0.84263 -0.4923,-1.53205 -1.09399,-1.53205 -1.54323,0 -2.14832,0.73717 -1.6334,1.98994 0.6697,1.62936 2.72739,1.28391 2.72739,-0.45789 z M 462.22506,360.72031 c -2.41582,-4.4808 -21.55285,-45.83133 -23.63291,-51.06515 -1.01992,-2.56647 -1.16996,-3.80882 -0.53181,-4.4046 0.63816,-0.59578 0.59741,-1.09992 -0.14433,-1.78737 -0.8284,-0.76775 -0.9249,-0.69183 -0.48655,0.383 0.30063,0.7373 0.17736,1.34053 -0.27387,1.34053 -0.45122,0 -1.03759,-0.5281 -1.3028,-1.17355 -0.32069,-0.78003 0.20017,-1.41583 1.55311,-1.89608 1.11956,-0.39739 2.03563,-0.86511 2.03563,-1.03939 0,-0.62461 -2.88352,-0.0887 -3.44247,0.63976 -0.31398,0.40912 -0.82813,0.50362 -1.14256,0.21002 -0.31452,-0.29361 -0.0977,-1.0671 0.48168,-1.7189 0.87513,-0.98448 0.84891,-1.11177 -0.15519,-0.75206 -0.84303,0.30204 -1.60399,-0.50647 -2.51546,-2.67293 -0.85784,-2.03877 -0.97577,-2.9516 -0.34323,-2.65673 0.52988,0.24708 0.3711,-0.008 -0.35297,-0.56805 -1.47511,-1.13987 -2.81011,-4.30088 -2.4817,-5.87587 0.11867,-0.56892 -0.13946,-0.82942 -0.57367,-0.57892 -0.43411,0.25051 -1.00842,-0.0774 -1.27622,-0.72892 -0.27874,-0.67824 -0.1401,-0.98441 0.32428,-0.71641 0.44617,0.25739 0.8111,-0.0587 0.8111,-0.7022 0,-0.64361 -0.46153,-1.00612 -1.02554,-0.8056 -0.641,0.22785 -1.71981,-1.28889 -2.87653,-4.04414 -1.08395,-2.582 -1.50896,-4.51517 -1.02563,-4.66558 0.4539,-0.14125 0.82527,-0.56199 0.82527,-0.93496 0,-0.37298 -0.61313,-0.45848 -1.3626,-0.18998 -1.0811,0.3873 -1.26637,0.1447 -0.89702,-1.17413 0.25648,-0.91548 0.12879,-1.46793 -0.28417,-1.22968 -0.41231,0.23794 -0.98083,-0.19247 -1.26324,-0.95646 -0.28242,-0.764 -1.95035,-4.42453 -3.7065,-8.1345 -1.75614,-3.70998 -2.99704,-7.04145 -2.75758,-7.40326 0.23955,-0.3618 0.12024,-0.77345 -0.26494,-0.91476 -0.58461,-0.21443 -6.69414,-11.66922 -6.69414,-12.55082 0,-0.51367 -23.45495,-51.69974 -31.39835,-68.52105 -7.89824,-16.7257 -11.0959,-23.40303 -27.87939,-58.21739 -17.55673,-36.418373 -20.08993,-41.747706 -19.93231,-41.933743 0.39023,-0.460643 17.69369,6.282864 25.9969,10.131515 32.90606,15.252419 60.66449,36.645808 82.51209,63.591988 20.43698,25.20637 35.34481,56.57775 42.80802,90.08328 8.32693,37.38269 4.17603,77.51861 -12.42963,120.186 l -2.83118,7.27442 z m -22.24022,-54.19305 c -0.22759,-0.52664 -0.41379,-0.0958 -0.41379,0.95752 0,1.05329 0.1862,1.48416 0.41379,0.95752 0.22768,-0.52664 0.22768,-1.3884 0,-1.91504 z m -1.03814,-9.63906 c 0.23246,-0.3511 -0.0987,-0.63835 -0.73595,-0.63835 -0.63723,0 -0.96841,0.28725 -0.73594,0.63835 0.23237,0.35108 0.56355,0.63834 0.73594,0.63834 0.1724,0 0.50357,-0.28726 0.73595,-0.63834 z m -4.13141,-1.27671 c -0.25979,-0.63196 -0.61737,-1.14902 -0.79473,-1.14902 -0.17736,0 -0.32253,0.51706 -0.32253,1.14902 0,0.63197 0.35767,1.14904 0.79482,1.14904 0.43706,0 0.58214,-0.51707 0.32244,-1.14904 z m 3.80575,-1.61399 c 0,-0.16558 -0.55389,-0.30104 -1.23077,-0.30104 -0.67689,0 -1.23078,0.33388 -1.23078,0.74197 0,0.40809 0.55389,0.54356 1.23078,0.30105 0.67688,-0.24251 1.23077,-0.5764 1.23077,-0.74198 z m 4.10243,-3.36512 c 0,-0.42131 -0.39106,-0.76602 -0.86897,-0.76602 -0.4779,0 -0.64073,0.34471 -0.36181,0.76602 0.27893,0.42131 0.6699,0.76602 0.86897,0.76602 0.19898,0 0.36181,-0.34471 0.36181,-0.76602 z m -9.18385,-2.70134 c -0.25261,-0.23584 -0.71138,0.1893 -1.01956,0.94476 -0.44524,1.09173 -0.35095,1.17972 0.45933,0.42881 0.56078,-0.51961 0.81285,-1.13772 0.56023,-1.37357 z m 5.90191,0.0655 c 0,-0.6071 -0.29015,-1.2712 -0.64469,-1.4758 -0.35463,-0.20458 -0.64469,0.29213 -0.64469,1.10382 0,0.81169 0.29006,1.4758 0.64469,1.4758 0.35454,0 0.64469,-0.49672 0.64469,-1.10382 z m -7.38447,-2.05067 c 0,-0.42131 -0.36916,-0.55298 -0.82048,-0.29259 -0.45123,0.26039 -0.82049,0.81813 -0.82049,1.23944 0,0.42131 0.36926,0.55297 0.82049,0.29259 0.45132,-0.26038 0.82048,-0.81813 0.82048,-1.23944 z m 4.92301,0.51863 c 0,-0.80851 -1.57464,-1.14819 -2.04298,-0.4407 -0.28343,0.42817 0.0598,0.7785 0.76382,0.7785 0.70347,0 1.27916,-0.15201 1.27916,-0.3378 z m -5.50569,-3.49229 c -0.23605,-0.84262 -0.75535,-1.53203 -1.15396,-1.53203 -0.85774,0 -0.88773,0.24435 -0.22676,1.85238 0.72288,1.75885 1.88742,1.48866 1.38072,-0.32035 z m 8.78763,1.19423 c 0,-0.18579 -0.36926,-0.55083 -0.82048,-0.81123 -0.45132,-0.26037 -0.82049,-0.10837 -0.82049,0.3378 0,0.44618 0.36917,0.81124 0.82049,0.81124 0.45122,0 0.82048,-0.152 0.82048,-0.33781 z m -3.80575,-1.57724 c 0.2597,-0.63196 0.11462,-1.14902 -0.32243,-1.14902 -0.43716,0 -0.79482,0.51706 -0.79482,1.14902 0,0.63197 0.14516,1.14903 0.32252,1.14903 0.17737,0 0.53494,-0.51706 0.79473,-1.14903 z m -8.50162,-1.14902 c 0,-0.42132 -0.36917,-0.76603 -0.82049,-0.76603 -0.45123,0 -0.82049,0.34471 -0.82049,0.76603 0,0.4213 0.36926,0.76601 0.82049,0.76601 0.45132,0 0.82049,-0.34471 0.82049,-0.76601 z m 15.58931,-0.76603 c 0,-0.4213 -0.16282,-0.76602 -0.3618,-0.76602 -0.19908,0 -0.59005,0.34472 -0.86897,0.76602 -0.27892,0.42132 -0.1161,0.76603 0.36181,0.76603 0.4779,0 0.86896,-0.34471 0.86896,-0.76603 z m -9.84592,-0.76602 c 0,-0.4213 -0.64606,-0.76073 -1.43582,-0.75428 -1.2271,0.01 -1.2569,0.11969 -0.20515,0.75428 1.54843,0.93425 1.64097,0.93425 1.64097,0 z m -3.69213,-0.76601 c 0.27892,-0.42132 0.11609,-0.76601 -0.36181,-0.76601 -0.47791,0 -0.86897,0.34469 -0.86897,0.76601 0,0.42131 0.16283,0.76601 0.36181,0.76601 0.19907,0 0.59004,-0.3447 0.86897,-0.76601 z m -2.12937,-3.83009 c -0.0138,-0.63196 -0.35978,-0.37344 -0.76795,0.57451 -0.40808,0.94796 -1.14495,1.72354 -1.63739,1.72354 -0.49244,0 -0.65352,0.36534 -0.35785,0.81187 0.65444,0.98862 2.80119,-1.42744 2.76319,-3.10992 z m 9.10354,3.06408 c 0,-0.42132 -0.36926,-0.76603 -0.82058,-0.76603 -0.45122,0 -0.82048,0.34471 -0.82048,0.76603 0,0.4213 0.36926,0.76601 0.82048,0.76601 0.45132,0 0.82058,-0.34471 0.82058,-0.76601 z m 6.56388,-1.65971 c 0,-0.3511 -0.55389,-0.63835 -1.23077,-0.63835 -0.67688,0 -1.23068,0.28725 -1.23068,0.63835 0,0.35108 0.5538,0.63834 1.23068,0.63834 0.67688,0 1.23077,-0.28726 1.23077,-0.63834 z m -10.6664,-0.51068 c 0,-0.35109 -0.5538,-0.63835 -1.23068,-0.63835 -0.67689,0 -1.23078,0.28726 -1.23078,0.63835 0,0.35109 0.55389,0.63834 1.23078,0.63834 0.67688,0 1.23068,-0.28725 1.23068,-0.63834 z m 6.86065,-0.51069 c 0.25979,-0.63195 0.15418,-1.14903 -0.23467,-1.14903 -0.38886,0 -0.91947,0.51708 -1.17926,1.14903 -0.2597,0.63197 -0.15409,1.14903 0.23468,1.14903 0.38885,0 0.91947,-0.51706 1.17925,-1.14903 z m -2.75813,-1.14903 c 0,-0.4213 -0.36926,-0.76601 -0.82058,-0.76601 -0.45122,0 -0.82048,0.34471 -0.82048,0.76601 0,0.42131 0.36926,0.76603 0.82048,0.76603 0.45132,0 0.82058,-0.34472 0.82058,-0.76603 z m -5.85517,-4.8814 c -0.10708,-1.56095 -0.12677,-1.55699 -0.46733,0.0938 -0.19557,0.94794 -0.69914,1.72354 -1.119,1.72354 -0.41985,0 -0.76345,0.38691 -0.76345,0.85981 0,0.59405 0.38039,0.56507 1.23078,-0.0938 0.67688,-0.52449 1.18045,-1.687 1.119,-2.58336 z m 3.00513,1.96528 c -0.25261,-0.23586 -0.91468,-5e-4 -1.47124,0.52302 -0.80429,0.75653 -0.71009,0.84453 0.45932,0.42881 0.80917,-0.28766 1.26454,-0.71598 1.01192,-0.95183 z m 6.54218,-0.14794 c 0.27892,-0.42132 -0.0681,-0.76603 -0.7721,-0.76603 -0.70347,0 -1.27907,0.34471 -1.27907,0.76603 0,0.4213 0.34737,0.76602 0.77201,0.76602 0.42464,0 1.00024,-0.34472 1.27916,-0.76602 z m -13.53806,-0.76603 c 0,-0.4213 -0.16283,-0.76601 -0.36181,-0.76601 -0.19898,0 -0.59004,0.34471 -0.86887,0.76601 -0.27892,0.42132 -0.1161,0.76603 0.36181,0.76603 0.4779,0 0.86887,-0.34471 0.86887,-0.76603 z m 16.4098,-2.29805 c 0,-0.42131 -0.16282,-0.76602 -0.3618,-0.76602 -0.19908,0 -0.59005,0.34471 -0.86897,0.76602 -0.27892,0.42131 -0.1161,0.76602 0.36181,0.76602 0.4779,0 0.86896,-0.34471 0.86896,-0.76602 z m -21.33271,-1.62245 c 0,-0.42131 -0.36926,-0.55298 -0.82049,-0.29259 -0.45122,0.26038 -0.82048,0.81813 -0.82048,1.23944 0,0.42131 0.36926,0.55297 0.82048,0.29259 0.45123,-0.26038 0.82049,-0.81813 0.82049,-1.23944 z m 7.38437,0.85643 c 0,-0.4213 -0.16283,-0.76601 -0.36181,-0.76601 -0.19898,0 -0.58995,0.34471 -0.86888,0.76601 -0.27892,0.42132 -0.11609,0.76602 0.36181,0.76602 0.47791,0 0.86888,-0.3447 0.86888,-0.76602 z m 4.92291,-0.42821 c 0,-0.65683 -0.36917,-0.9812 -0.82049,-0.72081 -0.45122,0.26038 -0.82048,0.79779 -0.82048,1.19422 0,0.39646 0.36926,0.72082 0.82048,0.72082 0.45132,0 0.82049,-0.5374 0.82049,-1.19423 z m 5.74349,0.42821 c 0,-0.4213 -0.36926,-0.76601 -0.82048,-0.76601 -0.45132,0 -0.82049,0.34471 -0.82049,0.76601 0,0.42132 0.36917,0.76602 0.82049,0.76602 0.45122,0 0.82048,-0.3447 0.82048,-0.76602 z m 11.4868,-1.53203 c 0,-1.6156 -1.1937,-2.06139 -2.05126,-0.76602 -0.59823,0.90381 0.17782,2.29805 1.27916,2.29805 0.42464,0 0.7721,-0.68942 0.7721,-1.53203 z m -27.07612,-2.38848 c 0,-0.4213 -0.36916,-0.55298 -0.82048,-0.29259 -0.45123,0.26038 -0.82049,0.81814 -0.82049,1.23944 0,0.42132 0.36926,0.55298 0.82049,0.2926 0.45132,-0.26038 0.82048,-0.81814 0.82048,-1.23945 z m 7.38437,0.93839 c 0,-0.37623 -0.53503,-0.87574 -1.18891,-1.11001 -0.79464,-0.2847 -1.03768,-0.0579 -0.73273,0.68407 0.49805,1.21163 1.92164,1.52719 1.92164,0.42594 z m 5.74349,0.34627 c 0,-0.1858 -0.36926,-0.55084 -0.82048,-0.81123 -0.45132,-0.26038 -0.82058,-0.10838 -0.82058,0.33779 0,0.44618 0.36926,0.81124 0.82058,0.81124 0.45122,0 0.82048,-0.15201 0.82048,-0.3378 z m 5.7434,-0.85644 c 0,-0.65683 -0.37524,-0.97771 -0.83391,-0.71309 -0.45859,0.26463 -0.62142,0.80204 -0.36181,1.19424 0.70338,1.06251 1.19572,0.86438 1.19572,-0.48115 z m -3.28194,-0.76602 c 0,-0.65683 -0.36926,-0.98119 -0.82048,-0.7208 -0.45132,0.26038 -0.82049,0.79779 -0.82049,1.19423 0,0.39644 0.36917,0.72081 0.82049,0.72081 0.45122,0 0.82048,-0.53741 0.82048,-1.19424 z m -4.21999,-1.0198 c 0.6123,-0.36219 0.79684,-0.8378 0.41019,-1.05689 -0.38655,-0.2191 -1.17898,0.0826 -1.76083,0.67027 -1.17246,1.1842 -0.38067,1.41084 1.35064,0.38662 z m -8.90787,-0.85003 c 0,-0.42131 -0.16283,-0.76603 -0.36181,-0.76603 -0.19898,0 -0.59004,0.34472 -0.86887,0.76603 -0.27892,0.4213 -0.1161,0.76602 0.36181,0.76602 0.4779,0 0.86887,-0.34472 0.86887,-0.76602 z m 4.92291,-0.85644 c 0,-0.42131 -0.36916,-0.55298 -0.82048,-0.29259 -0.45123,0.26038 -0.82049,0.81814 -0.82049,1.23944 0,0.42131 0.36926,0.55298 0.82049,0.2926 0.45132,-0.26038 0.82048,-0.81814 0.82048,-1.23945 z m -13.12777,0.0904 c 0,-0.4213 -0.39097,-0.76601 -0.86887,-0.76601 -0.4779,0 -0.64073,0.34471 -0.3619,0.76601 0.27892,0.42132 0.66998,0.76603 0.86897,0.76603 0.19898,0 0.3618,-0.34471 0.3618,-0.76603 z m 4.51272,0 c 0.27883,-0.4213 0.116,-0.76601 -0.3619,-0.76601 -0.47781,0 -0.86887,0.34471 -0.86887,0.76601 0,0.42132 0.16282,0.76603 0.36181,0.76603 0.19898,0 0.59004,-0.34471 0.86896,-0.76603 z m 16.82,-1.53202 c 0,-0.42132 -0.36926,-0.76603 -0.82048,-0.76603 -0.45132,0 -0.82049,0.34471 -0.82049,0.76603 0,0.4213 0.36917,0.76601 0.82049,0.76601 0.45122,0 0.82048,-0.34471 0.82048,-0.76601 z m -18.87126,-1.57725 c 0,-0.39645 -0.36926,-0.72081 -0.82048,-0.72081 -0.45123,0 -0.82049,0.5374 -0.82049,1.19422 0,0.65684 0.36926,0.9812 0.82049,0.72082 0.45122,-0.26038 0.82048,-0.79779 0.82048,-1.19423 z m 15.58932,0.81122 c 0,-0.4213 -0.36926,-0.76602 -0.82058,-0.76602 -0.45122,0 -0.82048,0.34472 -0.82048,0.76602 0,0.42131 0.36926,0.76603 0.82048,0.76603 0.45132,0 0.82058,-0.34472 0.82058,-0.76603 z m -20.36182,-1.698 c -0.58876,-0.54967 -0.9709,-0.5949 -0.9709,-0.1149 0,1.02246 0.97034,1.92836 1.51789,1.41713 0.2332,-0.21768 -0.0129,-0.80369 -0.54699,-1.30223 z m 17.07978,0.16597 c 0,-0.42132 -0.16273,-0.76602 -0.3618,-0.76602 -0.19898,0 -0.58995,0.3447 -0.86888,0.76602 -0.27892,0.42131 -0.11609,0.76601 0.36181,0.76601 0.4779,0 0.86887,-0.3447 0.86887,-0.76601 z m -10.92628,-2.44169 c -0.2619,-0.61107 -0.45638,-0.42957 -0.49575,0.4628 -0.0359,0.80751 0.15832,1.25995 0.43099,1.00541 0.27257,-0.25455 0.30173,-0.91524 0.0644,-1.46821 z m 17.49026,0.90965 c 0,-0.42131 -0.39106,-0.76602 -0.86896,-0.76602 -0.47791,0 -0.64074,0.34471 -0.36181,0.76602 0.27892,0.4213 0.66989,0.76602 0.86887,0.76602 0.19907,0 0.3619,-0.34472 0.3619,-0.76602 z m -21.33272,-0.76602 c 0,-0.42131 -0.39097,-0.76602 -0.86887,-0.76602 -0.4779,0 -0.64073,0.34471 -0.3619,0.76602 0.27892,0.42131 0.66998,0.76602 0.86897,0.76602 0.19898,0 0.3618,-0.34471 0.3618,-0.76602 z m 6.66407,-2.04909 c -0.96722,-1.55289 -1.20079,-1.05585 -0.409,0.87045 0.28131,0.68459 0.68443,1.08335 0.89564,0.88612 0.21122,-0.19722 -0.009,-0.98769 -0.48664,-1.75657 z m -9.12552,0.51705 c 0,-0.4213 -0.36926,-0.76601 -0.82049,-0.76601 -0.45132,0 -0.82048,0.34471 -0.82048,0.76601 0,0.42132 0.36916,0.76602 0.82048,0.76602 0.45123,0 0.82049,-0.3447 0.82049,-0.76602 z m 13.94825,-1.53203 c 0,-0.42131 -0.36917,-0.76602 -0.82048,-0.76602 -0.45123,0 -0.82049,0.34471 -0.82049,0.76602 0,0.42131 0.36926,0.76602 0.82049,0.76602 0.45131,0 0.82048,-0.34471 0.82048,-0.76602 z m -15.58922,-0.3378 c 0,-0.1858 -0.36926,-0.55084 -0.82049,-0.81123 -0.45132,-0.26039 -0.82048,-0.10837 -0.82048,0.3378 0,0.44617 0.36916,0.81123 0.82048,0.81123 0.45123,0 0.82049,-0.15202 0.82049,-0.3378 z m 8.61514,-1.19424 c -0.27892,-0.42131 -0.85452,-0.76601 -1.27916,-0.76601 -0.42464,0 -0.7721,0.3447 -0.7721,0.76601 0,0.42132 0.5756,0.76602 1.27916,0.76602 0.70357,0 1.05093,-0.3447 0.7721,-0.76602 z m 12.71748,0 c 0,-0.42131 -0.16273,-0.76601 -0.36181,-0.76601 -0.19898,0 -0.58995,0.3447 -0.86887,0.76601 -0.27892,0.42132 -0.1161,0.76602 0.36181,0.76602 0.4779,0 0.86887,-0.3447 0.86887,-0.76602 z m -19.39498,-1.14903 c -0.25969,-0.63196 -0.61736,-1.14903 -0.79472,-1.14903 -0.17737,0 -0.32244,0.51707 -0.32244,1.14903 0,0.63197 0.35758,1.14903 0.79473,1.14903 0.43706,0 0.58222,-0.51706 0.32243,-1.14903 z m 11.19013,0.38302 c 0,-0.42132 -0.16283,-0.76603 -0.36181,-0.76603 -0.19898,0 -0.59005,0.34471 -0.86888,0.76603 -0.27892,0.4213 -0.11609,0.76601 0.36181,0.76601 0.47791,0 0.86888,-0.34471 0.86888,-0.76601 z m -14.35855,-2.29806 c 0.81681,-0.84262 1.14743,-1.53204 0.73484,-1.53204 -0.41268,0 -1.21145,0.68942 -1.77509,1.53204 -0.56365,0.84262 -0.89436,1.53203 -0.73484,1.53203 0.15951,0 0.95838,-0.68941 1.77509,-1.53203 z m 6.56389,0.76601 c 0.27892,-0.4213 0.11609,-0.76601 -0.36181,-0.76601 -0.47791,0 -0.86888,0.34471 -0.86888,0.76601 0,0.42132 0.16283,0.76602 0.36181,0.76602 0.19898,0 0.59005,-0.3447 0.86888,-0.76602 z m 16.82009,-0.76601 c 0,-0.42132 -0.16283,-0.76602 -0.3619,-0.76602 -0.19898,0 -0.58995,0.3447 -0.86888,0.76602 -0.27892,0.42131 -0.11609,0.76601 0.36181,0.76601 0.47791,0 0.86897,-0.3447 0.86897,-0.76601 z m -19.13123,-1.67567 c -0.262,-0.61108 -0.45638,-0.42956 -0.49575,0.4628 -0.0359,0.80752 0.15832,1.25995 0.43089,1.00541 0.27267,-0.25454 0.30183,-0.91523 0.0653,-1.46821 z m 7.49246,1.38097 c -0.14204,-0.0763 -0.86133,-0.56714 -1.59838,-1.09064 -1.07117,-0.76086 -1.42056,-0.75579 -1.74143,0.0253 -0.2516,0.61239 0.34507,1.01946 1.59838,1.09065 1.09996,0.0624 1.88356,0.0511 1.74143,-0.0253 z m 8.35673,-1.23734 c 0,-0.4213 -0.39097,-0.76602 -0.86887,-0.76602 -0.4779,0 -0.64073,0.34472 -0.36181,0.76602 0.27893,0.42131 0.6699,0.76602 0.86888,0.76602 0.19907,0 0.3618,-0.34471 0.3618,-0.76602 z m 5.32741,-1.52327 c 0.28748,-0.43422 -0.0414,-0.56263 -0.7721,-0.30104 -1.42138,0.50924 -1.68144,1.05829 -0.50127,1.05829 0.42464,0 0.99767,-0.34075 1.27337,-0.75725 z m -18.45517,-0.77478 c 0,-0.42131 -0.16283,-0.76603 -0.36181,-0.76603 -0.19898,0 -0.59005,0.34472 -0.86897,0.76603 -0.27883,0.42131 -0.116,0.76602 0.3619,0.76602 0.47791,0 0.86888,-0.34471 0.86888,-0.76602 z m -9.02535,-0.76603 c 0,-0.4213 -0.36926,-0.76601 -0.82048,-0.76601 -0.45132,0 -0.82049,0.34471 -0.82049,0.76601 0,0.42131 0.36917,0.76603 0.82049,0.76603 0.45122,0 0.82048,-0.34472 0.82048,-0.76603 z m 13.53806,0 c 0.27883,-0.4213 0.1161,-0.76601 -0.36181,-0.76601 -0.4779,0 -0.86896,0.34471 -0.86896,0.76601 0,0.42131 0.16283,0.76603 0.36181,0.76603 0.19907,0 0.59004,-0.34472 0.86896,-0.76603 z m 6.1536,-1.53203 c 0,-0.42131 -0.16283,-0.76601 -0.36181,-0.76601 -0.19898,0 -0.58995,0.3447 -0.86887,0.76601 -0.27893,0.42132 -0.1161,0.76602 0.3618,0.76602 0.47791,0 0.86888,-0.3447 0.86888,-0.76602 z m -16.40971,-1.57724 c 0,-0.39645 -0.36926,-0.72082 -0.82049,-0.72082 -0.45132,0 -0.82048,0.53741 -0.82048,1.19424 0,0.65684 0.36916,0.9812 0.82048,0.72081 0.45123,-0.26038 0.82049,-0.79779 0.82049,-1.19423 z m 4.51262,0.81123 c 0.27892,-0.42132 0.1161,-0.76603 -0.36181,-0.76603 -0.4779,0 -0.86887,0.34471 -0.86887,0.76603 0,0.4213 0.16283,0.76601 0.36181,0.76601 0.19898,0 0.59004,-0.34471 0.86887,-0.76601 z m -8.61505,-0.33781 c 0,-0.18579 -0.36926,-0.55084 -0.82049,-0.81123 -0.45131,-0.26038 -0.82048,-0.10836 -0.82048,0.33781 0,0.44617 0.36917,0.81123 0.82048,0.81123 0.45123,0 0.82049,-0.15202 0.82049,-0.33781 z m 6.56388,-1.96025 c 0,-0.42131 -0.36926,-0.76602 -0.82048,-0.76602 -0.45132,0 -0.82049,0.34471 -0.82049,0.76602 0,0.42131 0.36917,0.76601 0.82049,0.76601 0.45122,0 0.82048,-0.3447 0.82048,-0.76601 z m -9.29883,-1.11533 c 0,-0.61343 -0.3137,-0.93432 -0.69713,-0.71309 -0.38342,0.22123 -0.48471,0.72313 -0.2251,1.11533 0.66345,1.00224 0.92223,0.8894 0.92223,-0.40224 z m 11.76029,-1.18273 c 0,-0.4213 -0.39097,-0.76601 -0.86887,-0.76601 -0.47791,0 -0.64074,0.34471 -0.3619,0.76601 0.27892,0.42132 0.66998,0.76602 0.86896,0.76602 0.19898,0 0.36181,-0.3447 0.36181,-0.76602 z m -4.51272,-0.76601 c 0.27893,-0.42132 0.1379,-0.76603 -0.31333,-0.76603 -0.45131,0 -1.04872,0.34471 -1.32764,0.76603 -0.27883,0.4213 -0.1378,0.76601 0.31342,0.76601 0.45132,0 1.04872,-0.34471 1.32755,-0.76601 z m 2.87175,-1.53204 c 0,-0.42131 -0.39106,-0.76602 -0.86888,-0.76602 -0.4779,0 -0.64073,0.34471 -0.3619,0.76602 0.27893,0.42131 0.66999,0.76601 0.86897,0.76601 0.19898,0 0.36181,-0.3447 0.36181,-0.76601 z m -11.4868,-0.76602 c 0,-0.42131 -0.16283,-0.76602 -0.3619,-0.76602 -0.19898,0 -0.58995,0.34471 -0.86887,0.76602 -0.27893,0.42131 -0.1161,0.76602 0.3618,0.76602 0.47791,0 0.86897,-0.34471 0.86897,-0.76602 z m -2.46146,-2.29805 c 0,-0.42132 -0.39106,-0.76602 -0.86896,-0.76602 -0.47791,0 -0.64073,0.3447 -0.36181,0.76602 0.27892,0.4213 0.66989,0.76601 0.86887,0.76601 0.19908,0 0.3619,-0.34471 0.3619,-0.76601 z m 17.2302,0 c 0,-0.42132 -0.16283,-0.76602 -0.36181,-0.76602 -0.19898,0 -0.59004,0.3447 -0.86896,0.76602 -0.27883,0.4213 -0.11601,0.76601 0.3619,0.76601 0.4779,0 0.86887,-0.34471 0.86887,-0.76601 z m -1.08046,-3.97373 c -0.26199,-0.61108 -0.45637,-0.42955 -0.49575,0.46281 -0.0359,0.80751 0.15832,1.25993 0.43099,1.0054 0.27258,-0.25454 0.30174,-0.91523 0.0644,-1.46821 z m 2.72143,-4.45248 c 0,-0.42131 -0.36917,-0.76602 -0.82048,-0.76602 -0.45123,0 -0.82049,0.34471 -0.82049,0.76602 0,0.42132 0.36926,0.76602 0.82049,0.76602 0.45131,0 0.82048,-0.3447 0.82048,-0.76602 z m 2.46146,-3.06407 c 0,-0.42131 -0.39097,-0.76602 -0.86887,-0.76602 -0.47791,0 -0.64074,0.34471 -0.36181,0.76602 0.27883,0.42131 0.66989,0.76601 0.86887,0.76601 0.19898,0 0.36181,-0.3447 0.36181,-0.76601 z m -27.8966,-5.69993 c 0,-0.18579 -0.36917,-0.55085 -0.82049,-0.81123 -0.45122,-0.26039 -0.82048,-0.10837 -0.82048,0.3378 0,0.44618 0.36926,0.81123 0.82048,0.81123 0.45132,0 0.82049,-0.15202 0.82049,-0.3378 z m 13.12786,-1.19424 c 0,-0.42131 -0.16283,-0.76601 -0.36181,-0.76601 -0.19907,0 -0.59004,0.3447 -0.86897,0.76601 -0.27892,0.42132 -0.11609,0.76602 0.36181,0.76602 0.47791,0 0.86897,-0.3447 0.86897,-0.76602 z m -6.41348,-1.698 c -0.58875,-0.54967 -0.97098,-0.5949 -0.97098,-0.11491 0,1.02247 0.97034,1.92837 1.51797,1.41713 0.23311,-0.21768 -0.0129,-0.80367 -0.54699,-1.30222 z m 3.95202,-1.45649 c 0,-0.42131 -0.36926,-0.55297 -0.82048,-0.29259 -0.45132,0.26039 -0.82049,0.81813 -0.82049,1.23944 0,0.42131 0.36917,0.55298 0.82049,0.29259 0.45122,-0.26038 0.82048,-0.81812 0.82048,-1.23944 z m 9.02534,0.85643 c 0,-0.42131 -0.39106,-0.76601 -0.86887,-0.76601 -0.4779,0 -0.64073,0.3447 -0.3619,0.76601 0.27892,0.42132 0.66998,0.76603 0.86896,0.76603 0.19899,0 0.36181,-0.34471 0.36181,-0.76603 z m -22.1532,-9.53001 c 0,-0.1858 -0.36917,-0.55085 -0.82049,-0.81123 -0.45122,-0.26039 -0.82048,-0.10837 -0.82048,0.3378 0,0.44617 0.36926,0.81123 0.82048,0.81123 0.45132,0 0.82049,-0.15202 0.82049,-0.3378 z m 2.46146,-6.55637 c 0,-0.42131 -0.16283,-0.76602 -0.36181,-0.76602 -0.19898,0 -0.58995,0.34471 -0.86888,0.76602 -0.27892,0.42131 -0.11609,0.76602 0.36181,0.76602 0.47791,0 0.86888,-0.34471 0.86888,-0.76602 z m -5.33311,-6.12815 c 0.27883,-0.4213 0.11609,-0.76601 -0.36181,-0.76601 -0.47791,0 -0.86897,0.34471 -0.86897,0.76601 0,0.42132 0.16283,0.76603 0.36181,0.76603 0.19907,0 0.59004,-0.34471 0.86897,-0.76603 z M 12.469823,336.36816 c -1.009623,-0.68923 -1.36995,-1.7745 -1.182432,-3.56133 0.339583,-3.23591 2.244317,-4.4622 5.354453,-3.44728 1.754803,0.57264 2.358737,1.31423 2.549071,3.13008 0.418918,3.9966 -3.356641,6.17537 -6.721092,3.87853 z m 480.576207,-1.01197 c -1.25984,-1.7951 -1.28026,-2.21309 -0.19659,-4.0216 1.47051,-2.45424 4.42707,-2.99324 6.55533,-1.1951 1.90674,1.61105 1.99487,3.25313 0.29604,5.51753 -1.75744,2.34252 -4.89928,2.20048 -6.65478,-0.30083 z m -241.086,-58.05446 c -7.0417,-2.90193 -8.80884,-11.69652 -3.31795,-16.51249 2.72572,-2.39069 9.00532,-2.99022 12.68959,-1.21149 3.25014,1.56914 6.22619,7.17792 5.41323,10.20198 -0.88893,3.30668 -3.50085,6.05446 -6.99627,7.3602 -3.93641,1.47048 -4.58055,1.48387 -7.7886,0.1618 z m 140.45155,-7.4517 c -9.81106,-10.65011 -22.49778,-19.89384 -37.58431,-27.38443 -19.22402,-9.5449 -36.59143,-13.66361 -61.34782,-14.54873 l -13.45326,-0.481 -6.32158,-13.15454 -6.32159,-13.15455 6.64704,-0.48651 c 3.65587,-0.26759 11.6315,-0.13608 17.72363,0.29224 28.06465,1.97314 49.69722,9.08913 74.11056,24.37851 6.23879,3.90719 11.63187,7.10397 11.98462,7.10397 0.91208,0 21.00939,42.76928 20.36176,43.3319 -0.11205,0.0974 -2.7217,-2.55624 -5.79905,-5.89686 z M 2.9419709,270.7159 c -0.902534,-0.84262 -1.640971,-1.9724 -1.640971,-2.51062 0,-1.91579 2.566651,-4.38355 4.55921,-4.38355 2.816752,0 5.5136551,2.69204 4.8355191,4.8268 -1.1532607,3.63044 -4.9852011,4.65213 -7.7537581,2.06737 z m 500.1415991,0.51477 c -1.71419,-1.17021 -1.96764,-4.56903 -0.46659,-6.25755 1.40814,-1.58409 5.2058,-1.44576 6.84907,0.24946 3.74945,3.86812 -1.82735,9.1178 -6.38248,6.00809 z M 91.554651,257.56153 c 0,-3.19252 0.23974,-6.92371 0.53276,-8.29154 0.53264,-2.4864 0.5337,-2.48686 4.62396,-2.03458 2.250156,0.2488 4.243749,0.5948 4.430209,0.76888 0.18646,0.17408 -1.894323,3.70171 -4.623959,7.83917 l -4.96297,7.52267 z m 4.54852,-24.64435 c -1.097,-0.74888 -1.3631,-1.57088 -0.9754,-3.01302 0.69557,-2.58739 3.43308,-3.40829 5.511059,-1.6526 1.97742,1.67074 1.99841,2.80827 0.0817,4.42772 -1.818753,1.53667 -2.651999,1.57961 -4.617369,0.2379 z m -80.944677,-27.0543 c -0.726846,-0.18138 -1.743903,-1.1952 -2.260121,-2.25297 -1.088462,-2.23034 -0.182542,-4.39989 2.369721,-5.67515 3.206251,-1.60202 7.450605,2.36057 5.734678,5.35397 -0.753901,1.31515 -3.511501,3.25077 -4.263691,2.99277 -0.142479,-0.0489 -0.853751,-0.23725 -1.580587,-0.41862 z m 476.974136,-0.68669 c -3.39297,-2.21877 -1.60647,-7.42354 2.54812,-7.42354 2.95242,0 4.65632,1.47165 4.65632,4.0216 0,3.47765 -4.11623,5.42137 -7.20444,3.40194 z M 120.30049,191.86616 c -1.31399,-2.29222 0.27942,-5.41228 2.76404,-5.41228 2.19624,0 4.5916,1.79829 4.5916,3.44708 0,3.10479 -5.81224,4.65764 -7.35564,1.9652 z m 9.98119,-18.58779 c -1.36017,-1.26988 -1.23372,-4.06227 0.2355,-5.20067 0.69977,-0.54221 2.09937,-0.73932 3.28195,-0.46221 3.50852,0.82212 2.44084,6.58209 -1.22008,6.58209 -0.72202,0 -1.75584,-0.41364 -2.29737,-0.91921 z M 45.85229,126.01495 c -3.263719,-1.91443 -5.258863,-5.40155 -5.316368,-9.29194 -0.06449,-4.36467 2.390613,-7.72504 6.926227,-9.47998 3.370513,-1.30414 4.240776,-1.36506 7.295064,-0.51073 9.424287,2.63615 11.627244,13.37485 3.833928,18.68915 -3.250628,2.21662 -9.477221,2.50671 -12.738851,0.5935 z m 407.78587,-0.26803 c -8.06999,-5.34916 -6.07356,-16.66945 3.35793,-19.0405 12.79733,-3.21718 20.23561,13.08754 8.72581,19.12696 -4.09819,2.15039 -8.75939,2.11705 -12.08374,-0.0865 z M 136.86406,51.97423 c -3.99539,-2.612695 -0.87487,-9.072106 3.6546,-7.564965 1.18059,0.39283 2.51604,1.264119 2.96769,1.936202 1.24753,1.856409 0.053,4.918231 -2.31111,5.923882 -2.5786,1.096887 -2.13618,1.127173 -4.31118,-0.295119 z m 233.01853,0 c -3.29076,-2.151928 -1.7155,-7.999762 2.15494,-7.999762 2.32561,0 5.04688,2.265146 5.04688,4.200941 0,1.049488 -0.91251,2.486143 -2.16186,3.40365 -2.59032,1.902279 -2.71974,1.912424 -5.03996,0.395171 z"
       id="path2" /></g></svg>
