<?xml version="1.0" encoding="UTF-8" standalone="no"?>
<!-- Created with Inkscape (http://www.inkscape.org/) -->

<svg
   width="1024"
   height="1024"
   viewBox="0 0 1024 1024"
   version="1.1"
   id="svg1"
   xml:space="preserve"
   sodipodi:docname="hero.svg"
   inkscape:version="1.3.2 (091e20e, 2023-11-25, custom)"
   xmlns:inkscape="http://www.inkscape.org/namespaces/inkscape"
   xmlns:sodipodi="http://sodipodi.sourceforge.net/DTD/sodipodi-0.dtd"
   xmlns="http://www.w3.org/2000/svg"
   xmlns:svg="http://www.w3.org/2000/svg"><sodipodi:namedview
     id="namedview1"
     pagecolor="#ffffff"
     bordercolor="#000000"
     borderopacity="0.25"
     inkscape:showpageshadow="2"
     inkscape:pageopacity="0.0"
     inkscape:pagecheckerboard="0"
     inkscape:deskcolor="#d1d1d1"
     inkscape:document-units="px"
     inkscape:zoom="0.25341797"
     inkscape:cx="329.49518"
     inkscape:cy="341.33333"
     inkscape:window-width="1366"
     inkscape:window-height="715"
     inkscape:window-x="-8"
     inkscape:window-y="-8"
     inkscape:window-maximized="1"
     inkscape:current-layer="layer1" /><defs
     id="defs1" /><g
     inkscape:label="Layer 1"
     inkscape:groupmode="layer"
     id="layer1"><path
       style="fill:#000000;stroke-width:2.07398"
       d="m 21.525996,925.43465 c -4.512256,-1.83553 -5.627853,-6.64446 -2.356082,-10.1563 l 2.110327,-2.26516 H 522.01651 c 483.79069,0 500.79439,0.0641 502.44909,1.89273 2.3571,2.60438 2.1463,6.70922 -0.4656,9.07303 -2.3928,2.16547 -997.178108,3.60998 -1002.474004,1.4557 z m -0.09889,-19.53131 c -2.781084,-7.24741 4.817568,-26.85245 13.952585,-35.99855 31.854357,-31.89309 93.187239,-12.71705 93.849589,29.34256 l 0.12712,8.07337 -53.667662,0.0654 c -46.718811,0.0568 -53.744571,-0.13523 -54.261632,-1.48261 z m 165.076854,1.12744 -13.23202,-0.28992 0.29461,-10.57751 0.2946,-10.5775 9.7548,-0.29999 c 12.64604,-0.38889 12.50259,-0.45935 11.14502,5.47321 -0.90005,3.93327 -0.82964,4.98528 0.38391,5.73556 2.43599,1.50604 3.63342,-0.81705 7.49003,-14.53127 4.82618,-17.16199 12.77858,-44.16303 19.20422,-65.20459 7.86501,-25.75502 9.89807,-32.61946 17.1662,-57.95966 21.9142,-76.40363 15.29579,-66.34205 43.41428,-66.00027 l 22.88578,0.27815 -0.22173,3.62249 c -0.23824,3.8925 -5.60006,40.76735 -18.96221,130.40921 -9.85449,66.11017 -10.15912,68.78517 -7.93043,69.64039 3.37592,1.29548 3.46857,0.78063 19.88923,-110.52264 1.42768,-9.67718 3.04534,-20.38937 3.59477,-23.80484 0.54947,-3.41549 1.92194,-12.49756 3.04998,-20.1824 4.57434,-31.16279 6.34469,-43.11546 6.86001,-46.31597 0.49082,-3.04811 0.88014,-3.36372 4.14969,-3.36372 5.8133,0 6.08171,-4.2548 -3.81858,60.53293 -5.25122,34.36419 -11.25506,76.44443 -10.95024,76.74921 0.12942,0.12943 6.9806,-1.35776 15.22482,-3.30486 8.24425,-1.94711 15.85908,-3.54647 16.92187,-3.55414 1.06281,-0.008 3.8541,-1.99335 6.20289,-4.41266 l 4.27055,-4.39871 -17.92337,-0.28353 -17.92337,-0.28352 0.56588,-2.82146 c 0.31123,-1.5518 1.30155,-7.94468 2.2007,-14.2064 2.34882,-16.35687 7.08096,-48.01274 11.31724,-75.70704 5.59806,-36.59673 9.83221,-32.54919 -33.68997,-32.20518 l -34.52101,0.27288 -14.794,51.2322 c -20.48729,70.94832 -20.10173,69.64262 -21.18707,71.74977 -0.91565,1.77769 -2.88284,1.86816 -33.75602,1.55248 l -32.78374,-0.33519 -6.82636,-3.23455 c -19.03411,-9.01898 -19.33234,-9.82904 -34.62656,-94.05488 -3.49622,-19.25372 -6.50167,-35.51349 -17.122046,-92.63196 -2.275606,-12.23879 -5.856123,-30.86866 -7.95662,-41.39973 -7.7442,-38.82589 -4.083866,-53.90803 15.299393,-63.04018 l 5.692463,-2.68194 h 171.2915 171.29148 l 5.39621,2.44006 c 12.52832,5.66505 17.16428,14.32256 21.41656,39.99468 1.50861,9.10796 4.10944,24.24475 5.77957,33.63729 1.67016,9.39259 8.66219,49.21396 15.53787,88.49198 6.87569,39.27802 13.87952,78.6866 15.56407,87.57459 5.18741,27.36972 4.38973,31.87871 -7.85231,44.38713 -11.68574,11.94003 -18.0615,34.7841 -11.2792,40.41292 4.38986,3.6433 7.7691,-1.85532 9.25263,-15.05557 1.34619,-11.97821 5.05735,-17.69227 16.2279,-24.98623 11.46706,-7.48751 13.00957,-5.52335 1.9814,2.52306 -9.87999,7.20869 -12.75797,12.30635 -13.35348,23.65254 -0.86077,16.3995 7.29307,22.75786 10.09235,7.87005 3.58066,-19.04341 4.83936,-22.46205 10.05992,-27.32243 5.6985,-5.30538 22.0884,-12.5341 22.0884,-9.74205 0,1.02954 -3.23807,3.17014 -8.7737,5.80013 -12.24282,5.81657 -17.10324,12.97415 -17.09954,25.18128 0.005,14.79776 10.54978,16.27653 13.00855,1.82421 1.81914,-10.69259 2.14699,-11.21726 9.16952,-14.67444 l 6.60305,-3.25065 9.93098,1.85469 c 11.60715,2.16777 11.88481,2.51636 3.97978,4.99657 -17.92327,5.62347 -29.97857,16.27209 -29.03971,25.6512 0.67647,6.75776 7.42007,6.39887 18.17653,-0.96731 3.84008,-2.62976 8.97484,-5.66339 11.41057,-6.74142 l 4.42863,-1.96006 4.71829,4.1532 c 14.29407,12.58216 38.41671,14.49672 47.81309,3.79482 5.16385,-5.88127 9.01897,-3.14898 4.2003,2.97695 -2.98046,3.78908 -2.90911,3.82626 17.72808,9.23853 49.43332,12.96427 87.30987,19.13442 122.88931,20.01886 15.1397,0.37632 23.31929,0.96906 23.90948,1.7326 0.98767,1.27779 3.27532,12.1487 3.27532,15.56438 v 2.15611 h -297.8195 c -163.80071,0 -303.77389,-0.13045 -311.05153,-0.28994 z m 543.1489,-4.94681 c 0,-1.59942 -2.47123,-2.75603 -13.45494,-6.29737 -18.62474,-6.005 -83.77955,-26.23744 -89.83487,-27.89631 -3.98667,-1.09219 -31.35636,-1.35202 -138.86008,-1.31824 l -133.89473,0.0421 -2.15782,-2.15782 c -1.18678,-1.18679 -2.901,-2.15781 -3.80935,-2.15781 -6.59219,0 -16.66491,-15.90505 -11.36155,-17.94015 1.77333,-0.68048 3.2955,0.96808 4.192,4.54001 1.94169,7.73627 9.71474,12.11761 22.85278,12.88112 l 10.13577,0.58903 -4.71323,-4.43372 c -2.59226,-2.43857 -6.21139,-7.11176 -8.0425,-10.38493 -1.83114,-3.27314 -3.75064,-6.21156 -4.26555,-6.5298 -1.41472,-0.87434 -1.122,-4.60254 0.35753,-4.55375 4.9432,0.16301 10.71056,4.82591 13.7437,11.11178 3.82398,7.92478 8.08955,12.65043 11.41876,12.65043 11.22101,0 0.51856,-32.18799 -11.52856,-34.67261 -1.37924,-0.28445 -3.73946,-0.77583 -5.2449,-1.09198 -3.88666,-0.81617 -1.67073,-2.64294 3.94093,-3.2488 4.08196,-0.44075 5.23902,0.0213 12.76868,5.10042 8.57552,5.78446 9.31462,6.7533 14.57852,19.10958 3.13823,7.36651 5.48085,9.88715 9.18885,9.88715 11.2406,0 6.42485,-18.80238 -8.4828,-33.11979 l -8.8907,-8.53869 h -18.86193 -18.86193 l -6.29319,6.72746 c -4.18426,4.47295 -7.08547,6.72856 -8.65737,6.73073 -1.30028,10e-4 -8.5321,1.63192 -16.07068,3.62249 -7.53858,1.99054 -14.88871,3.61919 -16.33363,3.61919 -1.44493,0 -2.83446,0.58218 -3.08786,1.29374 -0.95555,2.6832 -7.54943,48.91504 -7.08399,49.66813 0.26779,0.43331 57.28059,0.78781 126.69504,0.78781 h 126.20815 v -2.58748 -2.58748 H 436.23207 326.52272 v -4.65749 -4.65746 H 474.1393 621.75586 l 32.21362,10.25 c 17.71746,5.63749 41.06279,12.89558 51.87846,16.12908 10.8157,3.2335 20.13065,6.03414 20.69989,6.22365 1.92887,0.64215 3.10499,-0.1655 3.10499,-2.1322 z M 564.63932,885.03195 c 4.3695,-2.33848 2.33687,-4.10357 -4.72551,-4.10357 -5.96042,0 -6.72745,0.22816 -6.72745,2.00124 0,2.68854 7.71238,4.10424 11.45296,2.10233 z M 402.07726,861.29991 c 0,-0.54921 -0.91688,-1.48928 -2.03752,-2.08902 -1.12062,-0.59976 -3.26074,-3.17774 -4.75581,-5.72888 -1.49507,-2.55115 -2.79049,-4.63693 -2.87872,-4.63509 -0.0882,0.001 -0.23315,3.02918 -0.32205,6.72745 l -0.16179,6.72412 h 5.07792 c 2.79284,0 5.0779,-0.44937 5.0779,-0.99858 z m 39.14974,-1.99892 -2.40745,-2.99749 -1.78824,2.22125 c -2.61927,3.25355 -2.29058,3.77374 2.38445,3.77374 h 4.2187 z m 64.29425,-1.25107 -2.16749,-4.24858 -2.34593,2.2039 c -4.84419,4.55089 -11.19709,3.11778 -14.00771,-3.15992 l -1.80108,-4.02284 -1.61925,4.12225 c -1.59297,4.0553 -2.06138,4.39827 -11.12295,8.14407 -1.92229,0.79463 2.27386,1.0876 16.3222,1.13963 l 18.90967,0.0701 z m -46.57998,-1.12548 c 3.0415,-5.44374 -3.06701,-19.27171 -15.63128,-35.38493 l -6.14889,-7.88573 h -7.77057 c -5.61237,0 -7.56533,0.33205 -7.03168,1.19551 0.40638,0.65753 3.20525,4.63316 6.21971,8.83469 3.01447,4.20156 8.12395,13.09494 11.35436,19.76312 8.46155,17.46615 14.41956,21.69054 19.00835,13.47734 z m -30.96565,-0.8485 c 6.16091,-3.29723 0.15035,-26.60935 -9.8037,-38.02344 l -3.83602,-4.39872 h -8.71681 c -10.48803,0 -10.40818,-0.46857 -1.51517,8.89348 6.8033,7.1621 7.38064,8.15766 10.43823,17.99939 4.37348,14.07725 8.09912,18.38415 13.43347,15.52929 z m 48.12761,-0.77951 c 1.90623,-1.36888 4.20359,-5.79039 7.65492,-14.73282 6.016,-15.58748 7.56102,-19.07938 10.07472,-22.76985 l 2.4674,-3.62248 -5.36624,-0.3188 c -6.51955,-0.38732 -7.73094,0.82705 -14.77267,14.80871 -9.28654,18.43884 -9.31894,33.28543 -0.0581,26.63524 z m -9.14186,-18.6843 c 0.69536,-5.31424 -3.01831,-10.7099 -8.27266,-12.01951 -5.30057,-1.32112 -6.86566,0.2922 -4.12066,4.24758 1.11684,1.60928 3.595,5.80896 5.50701,9.33261 3.88276,7.15556 5.80274,6.72041 6.88631,-1.56068 z m -14.68689,-20.40295 3.10497,-2.54511 -5.43373,-0.005 c -5.9173,-0.006 -6.04026,0.0867 -4.14975,3.11387 1.64853,2.6397 2.67998,2.55 6.47851,-0.56362 z M 147.45756,681.32259 c -0.006,-0.93529 -2.79936,-15.9058 -6.20707,-33.26783 -3.40774,-17.36201 -6.19716,-31.68375 -6.19876,-31.82605 -0.001,-0.14227 -0.93438,-0.25875 -2.07287,-0.25875 -2.58612,0 7.40723,61.67587 10.91226,67.34713 0.86076,1.39275 3.57874,-0.12734 3.56644,-1.9945 z m 98.72368,-24.11867 c -8.71756,-25.22402 7.43458,-49.33788 33.73226,-50.3596 27.45376,-1.06665 45.82505,22.0145 38.84676,48.80596 -2.52632,9.69917 -0.93497,11.3646 2.87916,3.01319 10.37438,-22.71577 -6.93585,-51.59641 -33.68262,-56.19654 -31.68464,-5.44943 -58.31101,27.92095 -44.9841,56.37781 3.7468,8.00051 6.12101,6.78635 3.20854,-1.64082 z M 131.73146,603.44361 c 0.16778,-1.39385 -1.81162,-12.58202 -4.39872,-24.86259 -2.5871,-12.28057 -4.70383,-23.27307 -4.70383,-24.42775 0,-4.471 0.83281,-4.55109 46.34006,-4.45723 43.89847,0.0907 46.80941,-0.0751 46.80941,-2.66391 0,-2.74552 -91.0387,-2.06836 -94.56238,0.70335 -3.79638,2.98625 -3.6103,6.15161 1.96347,33.40085 5.57869,27.27335 7.38646,31.98878 8.55199,22.30728 z m 730.81303,303.56505 c -3.16865,-0.26527 -3.68143,-0.65321 -3.42014,-2.58747 0.16903,-1.25149 0.81091,-7.39865 1.42635,-13.66036 0.61546,-6.26172 1.36513,-13.34523 1.66596,-15.74116 l 0.54695,-4.3562 7.96415,-0.30127 7.96418,-0.30126 0.32041,-3.86757 0.32041,-3.86757 -35.51023,-0.27239 -35.51018,-0.27242 -2.36004,-14.37236 c -2.79746,-17.03626 -3.84293,-15.32102 9.25997,-15.19261 24.55869,0.24069 27.86149,-1.09622 21.30365,-8.62333 l -3.36372,-3.86089 -3.49668,1.76059 c -8.92063,4.49156 -18.24663,2.17052 -25.33067,-6.30428 -7.80244,-9.33418 -6.51436,-9.28592 -67.9446,-2.54579 -118.83874,13.03901 -116.60098,13.03337 -160.0309,0.40264 -13.02427,-3.78784 -25.54348,-7.34115 -27.82047,-7.89621 -5.04797,-1.23058 -24.74908,-0.42959 -28.83923,1.17252 -2.66302,1.04311 -2.88362,0.97507 -2.17,-0.66939 6.13119,-14.12867 6.99432,-4.86035 -8.84533,-94.97997 -2.90153,-16.50817 -6.65226,-37.93255 -8.33498,-47.60973 -1.68269,-9.6772 -4.90142,-28.07422 -7.15269,-40.88226 -2.25128,-12.80804 -6.44395,-36.76247 -9.31701,-53.23206 -7.53279,-43.1807 -12.4151,-51.46284 -33.56309,-56.93513 -8.68173,-2.24649 -8.53502,-2.981 0.48493,-2.42772 16.82242,1.03187 30.02189,13.95391 34.13542,33.41789 1.78003,8.42259 1.22671,8.2781 13.97485,3.64951 15.76335,-5.72335 17.28429,-6.00241 16.85128,-3.09194 -0.28904,1.94278 -2.58775,3.14578 -14.39571,7.53368 -12.31701,4.57708 -14.01024,5.48603 -13.71556,7.36267 0.18499,1.17753 1.69416,9.82579 3.3539,19.21837 3.39711,19.22443 4.96108,28.18775 13.00238,74.51955 3.11211,17.93128 8.20107,47.04047 11.30875,64.68713 3.1077,17.64663 6.91054,39.30387 8.45075,48.12721 2.88214,16.51058 3.6338,27.36139 2.24051,32.34355 l -0.79597,2.84622 h 12.18308 c 10.46679,0 13.71372,0.4404 23.04833,3.12609 57.41876,16.52001 80.90193,18.23439 112.29464,8.19802 48.02615,-15.35417 62.75566,-77.43223 32.24815,-135.91088 -0.85362,-1.63625 -1.30618,-3.61568 -1.0057,-4.39873 1.28638,-3.3522 4.27419,-1.01926 10.43777,8.14999 6.08543,9.05296 9.55329,16.19321 19.78389,40.73477 l 4.36094,10.46123 16.76718,-8.4237 c 29.76275,-14.95257 62.43135,-23.3234 91.15736,-23.35769 l 7.11559,-0.008 -0.6599,-3.3637 c -0.92512,-4.71569 -13.30699,-41.98453 -19.51389,-58.73592 -24.07204,-64.96641 -41.96349,-81.50355 -114.78195,-106.09347 -12.32008,-4.16034 -23.49803,-8.14088 -24.83986,-8.84564 -2.42861,-1.27558 -2.43081,-1.2714 -0.48239,0.92333 23.53873,26.51437 -64.03909,79.1587 -114.30514,68.71053 -31.82379,-6.61482 -69.82697,-43.39001 -53.73733,-52.00091 3.71807,-1.98986 31.33464,-11.35762 33.49909,-11.36316 2.16283,-0.006 1.98336,-8.07399 -0.49628,-22.31327 l -1.11484,-6.40178 -8.63033,-2.27988 c -29.43628,-7.77626 -36.87964,-22.66968 -47.07768,-94.19775 -1.17318,-8.22845 -2.56634,-15.22863 -3.09594,-15.55594 -0.52959,-0.3273 -1.24699,-2.677 -1.59421,-5.22155 -1.29483,-9.48873 -1.08418,-9.17075 -5.40997,-8.16626 -2.13864,0.49661 -6.45007,0.91146 -9.5809,0.92186 -5.52732,0.0186 -7.68761,-0.39492 -19.6649,-3.76223 l -5.69247,-1.60038 7.24497,-3.65814 c 13.52706,-6.83008 16.36284,-9.94702 10.09118,-11.09168 -33.67599,-6.14644 -56.1427,-50.55371 -42.0412,-83.09776 2.42393,-5.59402 2.4027,-5.60142 5.96362,2.08078 12.65536,27.30214 50.62533,33.82354 93.57334,16.07135 10.11812,-4.18225 9.04201,-4.41689 -3.35431,-0.73143 -29.94118,8.90165 -61.36358,7.10247 -68.62098,-3.92907 -1.50376,-2.28578 -1.49341,-2.29032 3.79835,-1.66359 l 5.3062,0.62843 -3.61805,-5.37637 c -3.41155,-5.06957 -6.26059,-12.35384 -5.23352,-13.3809 0.2563,-0.2563 3.62033,0.94264 7.47564,2.66435 14.07027,6.28345 33.95589,7.86324 48.92691,3.88693 l 7.76245,-2.0617 -12.93743,-0.61611 c -34.01857,-1.62 -51.55587,-16.94545 -45.24828,-39.5415 l 0.80891,-2.89786 3.97512,5.02894 c 13.09976,16.5724 37.92549,18.97401 72.80283,7.0428 22.8474,-7.81586 43.17868,-10.24008 57.18841,-6.81892 6.14587,1.50082 7.55498,1.41564 5.65549,-0.34191 -3.80558,-3.52122 -21.97505,-7.89902 -32.82409,-7.90873 -5.9759,-0.006 -5.52691,-1.28925 1.55248,-4.43929 37.36112,-16.6243 89.77189,12.86347 78.70679,44.28261 -0.63433,1.80113 0.46228,2.63795 8.44324,6.44297 36.20663,17.26207 42.48492,56.10148 19.81087,122.55632 -10.17843,29.83172 -11.56534,42.16328 -6.30005,56.01634 1.13368,2.98279 2.0615,5.82622 2.06178,6.31873 7.3e-4,1.27159 -10.89121,-0.2231 -17.33564,-2.37894 l -5.4337,-1.81775 0.0771,3.20307 c 0.0424,1.76172 0.86271,8.5592 1.82286,15.10554 l 1.74569,11.90242 6.19837,0.66391 c 3.40909,0.36517 52.80498,0.71447 109.76862,0.77625 92.01754,0.0997 104.19733,0.29838 109.19184,1.78025 13.85394,4.11045 24.22257,12.27294 29.06692,22.88216 2.87818,6.30354 6.05202,8.11243 6.05202,3.44935 0,-7.54433 -10.24375,-19.75891 -21.81469,-26.01169 l -7.68267,-4.15159 4.65749,0.62481 c 32.16556,4.31511 57.41197,45.11103 52.75703,85.25051 -1.16315,10.02948 -3.93927,34.3037 -6.16928,53.94271 -13.99466,123.25003 -12.19201,111.21843 -16.96212,113.2115 -4.39469,1.83624 -5.58145,3.93017 -6.4589,11.39644 -0.40734,3.46518 -1.1851,5.8013 -1.93147,5.8013 -6.91102,0 -5.97104,13.7647 1.0297,15.07805 l 3.60986,0.67721 v 9.77496 c 0,9.65364 -3.30606,44.77002 -9.33814,99.18653 -1.70366,15.36965 -3.31043,28.89174 -3.57059,30.04908 -0.45674,2.03241 -27.71376,3.09725 -44.12094,1.72367 z m 16.49007,-76.31891 c 1.61787,-1.41101 -2.47101,-4.61604 -5.8891,-4.61604 -2.15666,0 -7.84568,-1.21388 -12.64229,-2.69753 -13.80792,-4.27095 -13.16806,-4.26904 -14.93326,-0.0442 -2.20849,5.28558 -1.98253,7.68266 0.77845,8.25832 2.32402,0.48457 32.03664,-0.33399 32.6862,-0.90048 z m -38.22741,-22.21093 c 0.0837,-7.45114 -0.29647,-9.57666 -2.48432,-13.8891 -4.70648,-9.27689 -2.61966,-17.73982 6.14546,-24.92215 5.69301,-4.66498 6.12395,-4.42217 8.36236,4.71183 2.68999,10.97679 1.82168,15.61303 -4.0384,21.56256 l -4.77262,4.84549 0.0626,7.72692 0.0625,7.72689 2.75423,-5.69245 c 8.10861,-16.75898 24.36004,-23.35314 43.50355,-17.65197 8.40192,2.5022 8.69119,3.11815 4.28119,9.1148 -5.554,7.55235 -20.87873,11.75793 -25.60877,7.02788 -1.5092,-1.50919 1.95348,-2.6307 8.12231,-2.6307 6.79708,0 7.40239,-0.20015 11.32391,-3.74289 5.22371,-4.71935 5.19066,-5.00587 -0.77331,-6.69742 -14.02438,-3.9777 -27.84713,0.84149 -35.48414,12.37129 -4.09648,6.18454 -3.89225,6.66317 1.54607,3.62365 3.16292,-1.7678 5.8249,-2.47773 8.45868,-2.25588 6.11937,0.51545 5.17869,2.42591 -2.17453,4.41632 -8.30257,2.24741 -8.36281,2.73516 -0.62163,5.03321 18.739,5.56286 31.57122,-0.2754 40.50893,-18.43037 4.25758,-8.64843 4.26099,-8.64381 -8.91979,-11.96335 -6.23408,-1.57004 -11.24582,-3.28286 -11.13712,-3.80625 1.0033,-4.8305 2.60132,-27.21901 2.04611,-28.66598 -1.63912,-4.27143 -3.5322,0.55244 -4.7465,12.09497 -2.84232,27.01725 -4.0192,26.96441 -12.38574,-0.5562 -2.981,-9.80554 -6.90529,-22.25285 -8.72068,-27.66069 l -3.3007,-9.83246 -8.79744,-0.32918 c -17.79939,-0.66604 -39.4878,3.61734 -64.94587,12.82651 -16.33977,5.91076 -15.69802,3.8842 -7.61368,24.04224 16.04242,40.00122 14.13058,37.88982 29.70536,32.8057 16.55268,-5.40333 22.47449,-2.81263 33.05901,14.4628 5.91121,9.64795 6.41555,9.21386 6.5827,-5.66602 z m -14.31437,10.3135 c 5.07284,-2.71488 1.16587,-5.25667 -6.71471,-4.36841 -2.60603,0.29374 -4.73827,0.21686 -4.73827,-0.17089 0,-1.41819 7.33191,-3.72186 9.84116,-3.0921 4.4137,1.10777 2.39043,-2.89701 -3.75374,-7.43003 -4.67215,-3.44701 -20.57734,-2.58694 -20.57734,1.11272 0,1.1503 6.628,3.75746 9.13888,3.59482 4.64157,-0.30063 6.38602,-0.006 6.38602,1.07533 0,0.56924 -1.86297,1.035 -4.13995,1.035 -5.39962,0 -5.3451,1.73579 0.1881,5.98846 4.57432,3.5157 10.32737,4.41852 14.36983,2.25507 z m 21.98035,-28.87679 c 2.46614,-4.17485 1.66269,-15.28298 -1.23495,-17.0738 -1.44235,-0.89145 -7.35943,8.36068 -7.34439,11.48394 0.039,8.08705 2.30401,9.74211 4.01786,2.93578 0.64503,-2.56163 1.46028,-4.65749 1.81165,-4.65749 0.74317,0 -0.12154,6.9112 -1.19943,9.58544 -1.18831,2.94841 1.92235,1.15738 3.94926,-2.27387 z m 36.28184,-48.97006 c 0.33055,-1.85006 1.09512,-7.55546 1.69911,-12.67868 1.31268,-11.1343 3.85113,-32.08397 8.71594,-71.93208 1.98062,-16.22351 4.81743,-39.74375 6.30387,-52.26718 1.48653,-12.52343 3.83853,-31.57799 5.22659,-42.34348 2.96003,-22.95703 3.19334,-29.58859 1.04099,-29.58859 -2.38104,0 -2.49201,0.76105 -14.03515,96.25444 -5.67109,46.91563 -6.92886,57.24275 -10.84495,89.04214 -3.03374,24.63446 -1.56496,42.87253 1.8936,23.51343 z M 616.78894,581.27736 c 31.33273,-5.46397 63.46497,-31.30521 66.41394,-53.4111 l 0.63855,-4.78666 -10.21411,-6.75694 c -17.47701,-11.56151 -19.53513,-16.50664 -24.21787,-58.18926 -1.69735,-15.10852 -1.98423,-15.12041 -7.72648,-0.32053 -25.08886,64.663 -52.53313,86.18045 -72.58887,56.91263 l -4.73671,-6.9124 0.63944,4.13998 c 0.35171,2.277 0.92696,7.6499 1.27831,11.93979 l 0.63881,7.79983 -7.64004,1.85468 c -4.20202,1.0201 -11.13314,3.09914 -15.40248,4.62012 l -7.76246,2.76541 0.35159,3.62248 c 2.44351,25.17571 42.23277,43.3653 80.32838,36.72197 z m 187.77478,-48.00705 c 3.12177,-1.97731 -0.19951,-3.20483 -8.6713,-3.20483 -8.27168,0 -10.72791,0.81874 -9.31495,3.10498 0.78431,1.26905 16.00686,1.35358 17.98625,0.0999 z m 27.87715,-1.3936 c 0.30605,-1.60396 -0.61062,-1.81123 -8.01024,-1.81123 -8.06623,0 -10.15807,0.95774 -7.6248,3.49101 1.67053,1.67051 15.27464,0.20893 15.63504,-1.67978 z M 578.0262,492.36603 c 32.78577,-7.01144 59.75222,-34.61325 64.64347,-66.16647 l 1.09966,-7.094 4.7138,-1.78932 c 16.8076,-6.38007 23.58683,-25.50479 13.01448,-36.71477 -9.76654,-10.35552 -25.38924,-3.96191 -25.48902,10.43143 -0.0329,4.7553 -0.92773,6.43299 -4.3843,8.22045 -4.33744,2.24297 -4.41634,1.98011 -4.61001,-15.36066 l -0.17421,-15.59163 -5.40897,-5.28104 c -11.78177,-11.50307 -14.52423,-28.6767 -7.6198,-47.71576 0.58091,-1.60186 -0.0453,-1.33777 -2.76858,1.16766 -21.03743,19.35403 -60.43273,34.79048 -98.71119,38.67847 -6.2466,0.63451 -11.46208,1.25828 -11.59001,1.38617 -0.83193,0.83195 11.41505,81.54719 14.31609,94.35189 7.45315,32.8969 30.89335,48.33704 62.96851,41.47758 z m -27.71319,-37.00248 c -2.23516,-2.23515 0.6616,-3.9576 6.65582,-3.9576 3.07942,0 7.30593,-0.71323 9.39223,-1.58493 7.33229,-3.06363 9.32609,1.43387 2.09145,4.71776 -4.98391,2.26231 -16.19237,2.7719 -18.1395,0.82477 z m -17.82197,-21.54401 c -1.27712,-2.38631 6.33803,-32.49557 8.89289,-35.16133 4.64159,-4.84304 4.81306,1.10071 0.46109,15.98347 -2.30095,7.86876 -4.18355,14.7023 -4.18355,15.18561 0,0.48332 3.37664,0.8859 7.50369,0.8946 8.16959,0.0166 10.74021,0.93998 9.75699,3.50221 -1.06217,2.76797 -20.92494,2.40976 -22.43111,-0.40456 z m 108.6698,-28.43442 c 0,-0.83382 0.92599,-2.01164 2.05777,-2.61735 3.52822,-1.88825 3.77492,-5.93422 0.56606,-9.28354 -3.33705,-3.48313 -2.38509,-6.76179 2.32225,-7.99818 5.98759,-1.57261 10.11511,0.81349 11.17438,6.45987 1.16918,6.23229 -1.91124,10.79151 -3.28646,4.86409 -0.93302,-4.02153 -3.29854,-7.50369 -5.09742,-7.50369 -1.25424,0 -1.15647,0.69809 0.54136,3.86589 2.78868,5.20308 2.61674,7.13352 -0.95337,10.70363 -3.2064,3.20639 -7.32457,4.05499 -7.32457,1.50928 z m -120.57679,-1.804 c -5.45543,-3.12868 -6.48235,-10.61911 -1.94517,-14.18807 7.60792,-5.98438 17.1603,6.00959 10.27218,12.89773 -2.76624,2.76624 -5.11808,3.13068 -8.32701,1.29034 z m 60.54713,0.51915 c -8.69357,-3.17799 -8.22595,-16.86394 0.57619,-16.86394 6.21161,0 10.21536,6.35643 7.75107,12.30575 -0.94846,2.28978 -5.2643,5.71329 -6.56469,5.20743 -0.11547,-0.045 -0.90868,-0.33709 -1.76257,-0.64924 z m -68.99625,-21.96739 c -7.98015,-1.30445 -10.18338,-5.92392 -4.28112,-8.97612 6.1305,-3.17018 24.62485,-0.19226 26.32524,4.23893 1.89874,4.94803 -7.88804,7.05116 -22.04412,4.73719 z m 54.74216,-0.11218 c -11.97865,-4.81108 10.70168,-14.18766 24.82787,-10.26442 3.83292,1.06453 7.02114,3.41109 7.02114,5.16772 0,3.41292 -25.77257,7.53723 -31.84901,5.0967 z m -67.51041,-53.7644 c 10.59516,-1.21004 18.78031,-3.18574 18.36465,-4.43276 -0.40316,-1.20949 0.0559,-1.21741 -14.94638,0.25773 -11.91866,1.17195 -24.01303,0.93115 -33.17434,-0.66046 -4.5045,-0.78258 -4.37262,1.22248 0.1792,2.72472 3.18441,1.05095 13.3098,2.67027 18.70942,2.99213 1.13849,0.0677 6.02882,-0.32874 10.86743,-0.88136 z m 436.7674,578.5388 c 0,-1.55308 -4.16498,-49.80283 -4.66744,-54.07022 l -0.57882,-4.91621 h 40.40045 c 26.96028,0 40.40033,0.35371 40.40033,1.06329 0,3.82537 -4.3338,57.40764 -4.6898,57.98363 -0.5206,0.84235 -70.86472,0.78228 -70.86472,-0.0606 z M 48.109372,854.09612 c 0,-15.59179 26.009288,-25.65867 37.250271,-14.41767 7.433844,7.43383 7.411762,11.69102 -0.05244,10.09024 -3.104105,-0.66571 -9.426209,-0.95583 -14.382199,-0.66002 -7.82691,0.4672 -11.487091,1.4092 -21.004476,5.40583 -1.110094,0.46615 -1.811236,0.30419 -1.811236,-0.41838 z m 48.385957,-1.19539 c -0.996188,-0.58021 -1.815798,-1.84686 -1.82136,-2.81477 -0.04104,-7.1312 -9.387393,-17.83573 -16.803517,-19.24518 C 69.852723,829.31699 63.191666,793.64482 61.036056,740.68681 60.225066,720.76316 59.306331,702.36616 58.994423,699.80454 58.682514,697.24295 57.71878,688.62662 56.852782,680.65715 55.986821,672.68771 50.87457,635.19506 45.492273,597.34016 38.015957,544.75752 29.479485,482.06984 29.479485,479.75007 c 0,-0.0962 1.280806,-0.49444 2.846228,-0.88509 23.676135,-5.9084 24.939714,-42.99074 1.847628,-54.22289 l -4.076459,-1.98282 8.747479,-4.3759 c 12.760948,-6.3836 42.56898,-21.78641 79.127079,-40.88763 17.64665,-9.22018 40.59175,-21.11722 50.98912,-26.43783 18.30559,-9.3675 18.93745,-9.79697 19.95088,-13.56046 0.57558,-2.13763 2.26124,-5.33022 3.74593,-7.09465 2.69925,-3.20789 2.69929,-3.20834 1.00777,-8.44585 -4.78796,-14.82504 5.86278,-40.18991 16.87579,-40.18991 2.80148,0 3.01897,6.23387 0.26777,7.67521 -4.0675,2.13094 -9.17597,7.79333 -11.02028,12.21518 -3.10711,7.44959 -0.95798,21.42077 3.16989,20.60684 17.61989,-3.4743 27.0633,2.47693 25.24592,15.90994 -0.5391,3.98472 -1.26697,10.85988 -1.61747,15.27815 l -0.6373,8.03318 -5.64086,2.66855 c -4.48345,2.12103 -6.86399,2.59808 -11.60215,2.32516 -5.8375,-0.33627 -6.12204,-0.22245 -13.69816,5.47952 -26.95959,20.29035 -56.88313,37.1578 -82.36454,46.42761 -5.77646,2.1014 -20.735626,9.31457 -33.242576,16.02928 l -22.739892,12.20854 -0.611729,6.55069 c -1.083426,11.60232 -7.951799,22.46119 -16.739516,26.46515 -3.619519,1.64917 -4.316957,-4.75845 12.427615,114.17764 13.498528,95.87944 14.553815,105.54132 15.543419,142.31164 1.067433,39.6627 3.261976,57.35812 10.049402,81.0324 l 3.202549,11.17028 5.013454,2.15673 c 7.238992,3.11414 12.185834,10.31438 14.634724,21.30115 0.56183,2.52066 -0.716226,2.94051 -3.685871,1.21085 z M 64.151838,428.44654 c 5.692466,-2.21766 20.596358,-7.5397 33.119794,-11.8267 C 132.148,404.68101 170.8602,383.78269 193.86116,364.47723 l 2.40507,-2.01867 -2.75441,-3.61123 -2.75443,-3.61123 -5.34313,2.92966 c -5.67935,3.11401 -34.73041,18.479 -54.50533,28.82766 -6.54634,3.42586 -27.50495,14.23586 -46.574719,24.02223 -19.069763,9.78637 -35.095026,18.2005 -35.611664,18.69805 -1.429163,1.37633 1.481548,4.32462 3.433934,3.47828 0.904977,-0.39232 6.30289,-2.52775 11.995357,-4.74544 z M 215.66066,349.20033 c 3.63419,-3.01734 3.87745,-7.60174 0.57843,-10.90076 -3.59504,-3.59504 -7.94828,-3.69932 -11.37513,-0.27247 -6.86274,6.86275 3.30941,17.38963 10.7967,11.17323 z m 714.91042,490.19894 c -0.35583,-1.77888 -0.64703,-5.15555 -0.64721,-7.50369 l -2.6e-4,-4.26936 41.65883,0.24226 c 22.91235,0.13335 41.54236,0.48257 41.39996,0.77626 -0.1422,0.29368 -0.2588,3.56132 -0.2588,7.26145 v 6.72743 H 971.97079 931.21793 Z M 44.696074,798.90513 C 41.993067,776.56218 38.170088,744.77493 36.200582,728.26679 29.089958,668.66687 17.393343,573.33431 11.864827,529.91971 10.060223,515.74843 5.7087192,477.87877 5.6837557,476.12781 c -0.0047,-0.3495 2.1657338,0.46555 4.8238113,1.81124 2.658078,1.3457 5.820388,2.44671 7.027338,2.44671 2.074851,0 2.321852,1.05784 4.531352,19.40615 2.154022,17.88753 8.955263,73.08891 21.901525,177.76017 2.81629,22.76987 7.222801,59.33104 9.792242,81.24703 2.56943,21.916 5.372809,45.43624 6.22974,52.26719 1.787154,14.24628 1.990496,21.21737 0.618867,21.21737 -0.525633,0 -3.091288,1.63012 -5.701426,3.62249 -2.610138,1.99234 -4.869647,3.62245 -5.021133,3.62245 -0.151403,0 -2.486978,-18.28056 -5.189998,-40.62348 z m 883.823036,17.7018 c -0.36571,-3.49898 -0.66487,-7.22495 -0.66487,-8.27995 0,-1.83711 1.83685,-1.91816 43.4697,-1.91816 h 43.46966 l -0.015,5.95121 c -0.012,3.27318 -0.295,6.99915 -0.6382,8.27997 l -0.6241,2.32873 h -42.16655 -42.16656 z m -1.71126,-19.2543 c -0.008,-2.13468 -0.30013,-5.62779 -0.65298,-7.76245 l -0.64152,-3.88123 h 45.67514 45.67511 v 2.96053 c 0,1.62828 -0.2962,5.12139 -0.6581,7.76244 l -0.6582,4.80194 H 971.18324 926.8192 Z m -0.39168,-16.63343 c -0.29619,-0.47931 -0.82114,-4.09372 -1.16656,-8.03205 -1.02891,-11.7312 -1.19358,-12.14516 -4.56251,-11.47137 -3.91777,0.78355 -6.7718,-1.33117 -5.82457,-4.31574 l 0.7169,-2.25881 55.55834,0.26768 55.55833,0.26772 v 2.58748 c 0,2.2325 -0.5211,2.63089 -3.7984,2.90376 l -3.7982,0.31629 -0.6547,7.96368 c -0.3601,4.38001 -0.7467,8.89515 -0.8591,10.03364 -0.2181,2.20729 -89.8238,3.91516 -91.16953,1.73772 z m -4.08191,-30.89005 c -1.10656,-1.10648 -0.79603,-7.25992 0.51114,-10.12874 l 1.20109,-2.63618 h 46.7191 c 52.32091,0 49.20311,-0.50501 49.20311,7.96946 v 5.48548 h -48.47222 c -26.65974,0 -48.78278,-0.31052 -49.16222,-0.69002 z m 37.1027,-23.27645 c 3.59254,-26.35549 14.05744,-47.24772 30.53807,-60.96644 16.17767,-13.46665 18.44047,-14.08912 20.56357,-5.65695 5.1541,20.46833 -3.6782,41.91364 -21.79458,52.91876 -6.08314,3.69531 -18.4551,9.03429 -18.4551,7.9641 0,-1.06245 6.53306,-12.13849 13.20001,-22.3792 5.99718,-9.21183 9.21431,-17.29557 6.85907,-17.23493 -2.73581,0.0704 -22.37585,33.56902 -26.08872,44.49759 -2.75679,8.11444 -5.88743,8.67085 -4.82232,0.85707 z m 33.20812,-25.92973 c 5.98457,-4.1007 11.72162,-16.34342 7.65862,-16.34342 -0.56921,0 -1.03497,1.0955 -1.03497,2.43441 0,3.56543 -4.15787,9.1647 -8.56788,11.53802 -2.11555,1.13849 -3.84772,2.65216 -3.8492,3.36372 -0.008,1.92518 2.04838,1.57348 5.79343,-0.99273 z m 11.79862,-33.93832 c 0,-1.15 -0.6899,-2.06997 -1.5524,-2.06997 -1.5758,0 -2.1231,2.18943 -0.8625,3.44997 1.3122,1.31217 2.4149,0.68197 2.4149,-1.38 z M 727.0654,608.23731 c 0,-17.50843 27.81971,-50.75072 39.92873,-47.71154 3.98802,1.00092 2.92491,3.30818 -2.18324,4.73838 -11.76754,3.29471 -25.01824,18.70963 -31.24925,36.35316 -2.6846,7.60161 -6.49624,11.48587 -6.49624,6.62 z M 521.28405,522.61394 c -6.58663,-6.74613 -7.54989,-8.72917 -4.76019,-9.79968 3.57778,-1.37291 15.1756,12.27192 12.61083,14.83667 -1.28857,1.28856 -2.32207,0.62548 -7.85064,-5.03699 z m -70.22431,-21.27953 c -1.45746,-1.55994 -4.80775,-5.39644 -7.44505,-8.52557 -2.6373,-3.12909 -11.08558,-12.9098 -18.77394,-21.73486 -28.16205,-32.32564 -30.23015,-34.93371 -29.50728,-37.21128 0.97958,-3.08637 1.9011,-2.68044 6.34368,2.79457 3.74632,4.61695 9.35328,11.11865 42.03648,48.74459 7.24568,8.34146 13.18396,15.69865 13.19617,16.3493 0.0486,2.58523 -3.26587,2.34913 -5.85006,-0.41675 z m 46.17347,-1.02502 c -8.5527,-9.25005 -9.30681,-10.29497 -8.65536,-11.99264 1.13956,-2.96962 2.92697,-1.93885 9.6403,5.55935 5.37325,6.00147 6.29709,7.54685 5.2592,8.79744 -1.78338,2.14884 -2.22652,1.98105 -6.24414,-2.36415 z M 238.78228,483.30722 c 0.27111,-17.14436 0.37411,-17.92886 2.35352,-17.92886 3.47408,0 3.1945,35.0302 -0.28351,35.52377 l -2.3535,0.33398 z m 71.03612,14.93219 c -0.62054,-1.56543 -1.72231,-4.94209 -2.44835,-7.50369 -0.72607,-2.56163 -3.63968,-11.87657 -6.4747,-20.6999 -2.83498,-8.82331 -4.92332,-16.64745 -4.64074,-17.38695 0.98262,-2.57132 3.88423,-0.67169 5.23716,3.42869 6.70286,20.31458 13.28986,42.66066 12.88577,43.71435 -0.86573,2.25742 -3.38958,1.39801 -4.55914,-1.5525 z m -37.46878,-0.46364 c -0.65509,-2.50507 0.85662,-4.97007 3.04798,-4.97007 1.58325,0 3.0369,4.47231 1.99934,6.15115 -1.19925,1.94036 -4.42864,1.1847 -5.04732,-1.18108 z m 138.37321,-1.06898 c -2.10599,-2.35233 -10.46918,-13.61381 -16.88092,-22.731 -3.20779,-4.56134 -3.68908,-8.07993 -1.10523,-8.07993 1.64447,0 22.92569,29.09391 22.58085,30.87064 -0.48458,2.49687 -2.32733,2.47294 -4.5947,-0.0597 z m -34.2523,-3.64234 c -12.64884,-18.53002 -19.72144,-34.10534 -14.56878,-32.08348 1.96691,0.77179 20.77468,32.63024 20.00175,33.88089 -1.15643,1.87115 -3.44575,1.11375 -5.43297,-1.79741 z m -42.61802,-21.16534 c -9.22302,-20.35734 -10.20996,-23.50206 -7.64406,-24.35635 1.50663,-0.50163 3.62947,3.55589 13.36948,25.55401 7.22816,16.32499 8.00661,19.70893 4.53388,19.70893 -0.43309,0 -5.04977,-9.40797 -10.2593,-20.90659 z M 99.405017,482.55834 c -2.611866,-4.22609 -1.956183,-4.274 54.646773,-3.99299 53.18489,0.26406 53.9642,0.29782 53.9642,2.33792 0,2.27373 -107.21883,3.90758 -108.610973,1.65507 z m 371.669043,-7.92145 c -2.80944,-3.52102 -3.10038,-6.67105 -0.61613,-6.67105 2.18465,0 8.25351,6.95948 7.58593,8.69918 -1.0382,2.70547 -3.84442,1.88888 -6.9698,-2.02813 z m -457.927699,0.49797 c -24.87309,-9.84143 -19.0501031,-46.68868 7.646863,-48.38862 22.097753,-1.40707 35.320919,24.35436 20.919859,40.75625 -7.659103,8.72324 -18.49359,11.61797 -28.566722,7.63237 z M 269.22331,463.56713 c -5.81743,-26.98621 -7.22125,-40.10602 -4.29133,-40.10602 1.8413,0 1.88061,0.14934 6.18103,23.47447 4.61623,25.03818 2.9962,39.29643 -1.8897,16.63155 z m -168.07045,3.71325 c -9.053694,-3.65323 -1.87226,-4.48951 38.55353,-4.48951 38.33472,0 39.84726,0.0741 39.84726,1.94928 0,2.88676 -71.77838,5.21245 -78.40079,2.54023 z m 88.00361,-0.47565 c -2.89322,-2.89322 -0.19744,-4.01386 9.6553,-4.01386 8.84856,0 9.72171,0.17588 9.72171,1.95926 0,3.22837 -16.45812,4.97348 -19.37701,2.0546 z m 298.29407,-8.16821 c -2.75702,-2.87771 -2.85843,-3.24947 -1.30889,-4.79899 2.05502,-2.05504 4.266,-1.32527 6.55115,2.16227 3.6576,5.58225 -0.44384,7.64519 -5.24226,2.63672 z m -37.63117,-4.73841 c -4.62108,-5.24981 -5.25414,-7.35534 -2.52625,-8.40213 2.071,-0.79472 10.90698,8.58703 10.42888,11.07305 -0.60409,3.1412 -3.71085,2.0912 -7.90263,-2.67092 z m 306.31334,-0.7464 c -3.7374,-5.04138 -7.0635,-7.1447 -12.21698,-7.72557 -7.69303,-0.86712 -13.14074,-26.794 -7.24374,-34.47466 4.02571,-5.24331 37.24092,-6.29974 43.09867,-1.37079 l 3.18439,2.6795 v 12.8968 c 0,14.61206 -1.21087,18.57804 -5.97004,19.55356 -8.90782,1.82587 -10.65274,2.72806 -13.95168,7.21351 -4.0313,5.48118 -3.78037,5.43655 -6.90062,1.22765 z m 9.37531,-20.22779 c 5.46357,-5.46359 6.45467,-9.27488 3.31419,-12.74505 -1.86446,-2.06024 -6.55071,-2.53005 -8.25333,-0.82744 -0.73038,0.7304 -1.98745,0.58686 -3.99868,-0.45658 -6.44826,-3.3454 -11.45581,3.42599 -7.11579,9.62223 6.8466,9.77491 9.85867,10.60175 16.05361,4.40684 z m 130.7231,22.53182 c -1.84454,-2.98453 1.98805,-3.5358 26.7305,-3.84486 27.51507,-0.34371 29.7324,-0.12589 29.7324,2.91975 0,2.40215 -54.99316,3.30318 -56.4629,0.92511 z m 65.77786,-0.80064 c 0,-1.55035 1.05944,-2.05308 5.43377,-2.5785 13.63471,-1.63772 23.08626,-0.23538 20.38115,3.02401 -2.09884,2.52901 -25.81492,2.11973 -25.81492,-0.44551 z M 239.7903,451.19894 c -1.65136,-1.65134 -1.72253,-25.80831 -0.0809,-27.44996 3.10749,-3.10746 4.01385,-0.24516 4.01385,12.67563 0,15.4573 -0.68326,18.02404 -3.93296,14.77433 z m 228.56773,-11.65302 c -3.47288,-3.5831 -3.27053,-6.76986 0.42989,-6.76986 2.26239,0 7.82575,7.84916 6.50179,9.17312 -1.88004,1.88003 -3.23571,1.41001 -6.93168,-2.40326 z m -123.26999,-1.71565 c -1.41241,-2.63914 0.95335,-5.72899 3.60686,-4.71074 2.11984,0.81346 2.11658,5.45934 -0.005,6.27324 -2.29171,0.87941 -2.29676,0.87723 -3.60244,-1.5625 z m -54.28778,-0.13791 c -4.26442,-11.79469 -4.72266,-15.63274 -1.79912,-15.06974 1.99324,0.38387 6.92276,12.66053 6.02404,15.00254 -0.66335,1.72864 -3.60729,1.77547 -4.22492,0.0671 z m 566.99916,-0.72475 c -4.26006,-2.59753 -5.49977,-5.03977 -5.49977,-10.83457 0,-13.3092 18.15629,-16.66432 23.31867,-4.30904 4.53619,10.85655 -7.73971,21.28935 -17.8189,15.14361 z m 10.40305,-5.30158 c 4.91221,-3.86397 1.84664,-12.34481 -4.46231,-12.34481 -5.33646,0 -7.81264,7.06894 -4.12045,11.76284 2.58411,3.28515 4.94288,3.4451 8.58276,0.58197 z m 27.76352,5.50882 c 0.58423,-3.03749 55.69309,-3.31025 55.69309,-0.27565 0,2.04115 -0.61432,2.08691 -28.02079,2.08691 -26.12912,0 -27.99718,-0.12237 -27.6723,-1.81126 z m 61.90304,-0.25875 c 0,-2.06065 0.46452,-2.11659 15.26614,-1.83889 12.75263,0.23925 15.26615,0.54203 15.26615,1.83889 0,1.29688 -2.51352,1.59966 -15.26615,1.83893 -14.80162,0.2777 -15.26614,0.22174 -15.26614,-1.83893 z m -527.11998,-1.85141 c -3.13787,-3.27524 -3.59407,-5.90116 -1.18573,-6.82533 2.12834,-0.8167 6.8554,4.29779 6.45576,6.98489 -0.4634,3.11598 -2.18172,3.06394 -5.27003,-0.15949 z m -114.22446,-5.65228 c -5.88349,-8.12601 -8.62064,-19.49344 -4.29407,-17.83317 2.52829,0.97019 9.28482,16.12545 7.92144,17.76823 -1.41234,1.70176 -2.42907,1.71997 -3.62737,0.0649 z m 132.84842,-7.80884 c -2.80276,-2.92544 -2.81153,-2.97791 -0.80187,-4.79662 2.38302,-2.1566 7.79126,1.92082 7.12646,5.37279 -0.55016,2.85681 -3.27327,2.60872 -6.32459,-0.57617 z m -68.4438,-0.47112 c -1.0688,-1.28079 -3.73391,-4.29775 -5.92248,-6.70433 -2.18856,-2.40658 -3.97922,-5.08464 -3.97922,-5.95121 0,-2.92761 3.68541,-1.60072 7.84115,2.82311 7.69598,8.1924 8.10921,8.84896 6.66486,10.58926 -1.7331,2.08828 -2.30916,1.9936 -4.60431,-0.75683 z m 515.17441,-2.43318 c -1.18684,-3.09279 2.22206,-3.48633 30.19808,-3.48633 27.976,0 31.3849,0.39354 30.19814,3.48633 -0.96647,2.5185 -59.42983,2.5185 -60.39622,0 z M 334.17936,406.92693 c -2.69792,-4.07681 -2.76726,-7.27061 -0.15784,-7.27061 2.27928,0 7.1509,8.39298 5.80966,10.00904 -1.77942,2.14409 -2.72335,1.68674 -5.65178,-2.73843 z m -95.15287,-0.75438 c -8.98136,-21.2656 -10.53283,-47.51893 -4.53565,-76.75098 3.71321,-18.09939 3.47713,-19.12978 -7.33196,-32.00031 -18.46308,-21.9842 -17.76521,-41.79193 1.67707,-47.60115 12.86858,-3.84505 17.52846,-1.03564 37.37306,22.53198 l 9.15069,10.86745 5.65791,0.26126 c 27.62636,1.27577 58.5453,13.93487 77.19896,31.60745 8.1475,7.71899 8.19276,7.39244 -2.01738,14.55608 -5.4575,3.8291 -9.45581,6.67972 -17.10908,12.19806 -1.80135,1.29883 -2.4692,3.00257 -2.84002,7.24495 -2.43922,27.90613 -27.65504,45.4282 -54.08153,37.58039 l -5.40013,-1.60367 -10.05386,6.94988 c -5.52963,3.82242 -13.64823,9.45579 -18.04133,12.51861 l -7.98745,5.56875 z m 70.93639,-26.33167 c 10.26906,-4.86229 18.1941,-15.1109 20.60913,-26.65157 0.64277,-3.0716 1.04257,-5.68497 0.88845,-5.80746 -0.25757,-0.20469 -34.52391,23.55032 -43.49122,30.15015 -6.31201,4.64557 -4.93696,5.53919 8.02123,5.21277 6.47688,-0.16322 9.51953,-0.7955 13.97241,-2.90389 z m 124.71675,28.33731 c -6.59565,-4.83952 -15.25786,-15.95992 -13.66934,-17.54847 2.09676,-2.09673 17.78982,12.4146 17.12635,15.83672 -0.40114,2.06917 -1.9349,2.82862 -3.45701,1.71175 z m 554.7875,-0.19205 c -1.31836,-2.1332 0.54743,-5.36224 2.90432,-5.02648 3.16116,0.45035 3.16859,5.36171 0.008,5.81199 -1.22707,0.17483 -2.53802,-0.17858 -2.91308,-0.78551 z M 355.11554,392.92031 c -4.48083,-5.19013 -5.67284,-8.78894 -2.91111,-8.78894 1.66479,0 11.06064,10.31476 11.06064,12.14236 0,3.63434 -3.28308,2.28338 -8.14953,-3.35342 z m 634.1725,-9.31963 c -0.69495,-1.81113 1.3244,-4.64429 3.31026,-4.64429 1.56252,0 2.97594,3.61684 2.01873,5.16571 -0.98842,1.59929 -4.65276,1.24077 -5.32899,-0.52142 z m -585.13333,-1.7698 c -2.46516,-2.64605 -2.61784,-4.24248 -0.56844,-5.94332 1.89078,-1.5692 7.09477,3.09082 6.16305,5.51883 -0.99097,2.58242 -3.41299,2.76619 -5.59461,0.42449 z m -34.42093,-5.54554 c -6.60453,-5.4049 -9.0845,-9.74888 -5.56564,-9.74888 2.62249,0 14.62183,10.4171 14.62183,12.69382 0,3.5911 -1.77464,3.01401 -9.05619,-2.94494 z m 355.182,1.71566 c -5.7446,-5.74457 -1.99327,-19.74448 5.2906,-19.74448 0.54945,0 0.99899,-2.12826 0.99899,-4.72945 0,-6.84527 4.47578,-6.57387 4.9743,0.30162 0.25028,3.45182 0.95135,4.82141 3.33776,6.52069 4.07887,2.9044 5.93037,9.03211 4.07936,13.50086 -3.01883,7.28808 -13.2667,9.56509 -18.68101,4.15076 z m 11.64181,-3.8625 c 2.14941,-1.94519 2.50673,-6.57402 0.65073,-8.43004 -2.899,-2.89899 -10.14292,-0.13999 -10.14292,3.86312 0,5.14254 5.78214,7.92447 9.49219,4.56692 z m 33.34617,2.30689 c -0.94163,-2.45385 0.39072,-4.93207 2.43948,-4.53752 1.14575,0.22065 1.81437,1.29247 1.81437,2.90855 0,2.95037 -3.26673,4.20136 -4.25385,1.62897 z m 220.0244,-3.24885 c -1.09362,-2.8765 -1.45051,-86.07072 -0.3811,-88.85743 0.68655,-1.7892 3.04328,-2.19746 3.97574,-0.68873 0.82411,1.33343 0.90849,89.78261 0.0865,91.11192 -1.14041,1.84528 -2.62466,1.21405 -3.68156,-1.56576 z m -219.21065,-5.85669 c -1.80364,-1.80366 -1.73024,-62.49293 0.0763,-63.15732 3.74299,-1.37645 3.88123,-0.26308 3.88123,31.26365 0,31.64918 -0.46387,35.38739 -3.9576,31.89367 z m 42.7506,-1.19516 c -11.56054,-5.09481 -10.97956,1.24762 -10.62992,-116.04503 l 0.29926,-100.3944 2.48508,-3.48434 c 5.22308,-7.32327 5.31656,-7.33496 58.87953,-7.36037 53.56535,-0.0254 52.95592,-0.10335 58.34876,7.45754 l 2.41592,3.38717 0.27372,101.8479 c 0.30878,114.89122 0.83627,107.14072 -7.68511,112.91332 l -3.81963,2.58748 -48.7217,0.23381 c -38.69356,0.18562 -49.36471,-0.0496 -51.84591,-1.14308 z m 91.49006,-31.59316 c 4.41438,-2.79602 -0.85848,-3.20484 -41.33466,-3.20484 -40.6487,0 -41.33869,0.0346 -41.33869,2.06997 0,2.23509 79.21942,3.32254 82.67335,1.13487 z m 0.96437,-11.74355 c 0.32733,-1.70095 -2.20832,-1.81125 -41.64457,-1.81125 -42.27636,0 -44.56156,0.19164 -41.29144,3.46171 1.82838,1.82837 82.57573,0.22146 82.93601,-1.65046 z m 3.30178,-22.79952 c 6.21143,-3.10366 6.20671,-3.05442 6.20671,-64.91622 0,-74.81155 6.63197,-66.20351 -51.02162,-66.22435 -57.32605,-0.0207 -50.41462,-9.06309 -50.36788,65.89758 0.0392,62.97728 -0.0236,62.1979 5.25223,65.12205 3.48962,1.93414 86.07944,2.04522 89.93056,0.12092 z M 860.0621,280.43003 c -3.40287,-1.92997 -6.89268,-6.15461 -6.31901,-7.64957 0.29487,-0.76842 0.0437,-1.70141 -0.55793,-2.07328 -0.60172,-0.37192 -0.83403,-1.97633 -0.51621,-3.56537 0.35327,-1.76642 0.048,-3.32904 -0.78597,-4.02102 -0.75007,-0.62251 -1.14678,-2.26689 -0.88159,-3.65417 0.30902,-1.61655 -0.72367,-4.68057 -2.87563,-8.53215 -6.97329,-12.4807 -7.21106,-13.10565 -7.21106,-18.95308 0,-20.98593 26.8385,-30.61051 40.58274,-14.55341 7.58665,8.86329 7.70243,17.51565 0.3986,29.78867 -3.40445,5.72065 -4.75657,9.10513 -4.75657,11.90651 0,2.15265 -0.46549,3.91392 -1.03433,3.91392 -0.56894,0 -1.029,1.51367 -1.02235,3.36373 0.0254,7.1128 -0.20655,8.12235 -2.40526,10.46614 -4.35164,4.6391 -8.60171,5.83948 -12.61543,3.56308 z m 1.55247,-32.3306 c 0,-9.8887 -0.17421,-10.853 -2.06997,-11.45468 -2.5081,-0.79604 -2.81944,-5.18341 -0.43285,-6.09924 3.02161,-1.1595 9.4823,-0.64272 10.72787,0.85812 1.34038,1.61503 -0.13584,5.75862 -2.05148,5.75862 -0.57804,0 -0.99859,4.57666 -0.99859,10.86743 0,10.17743 0.1315,10.86744 2.06999,10.86744 1.13849,0 2.06998,-0.67602 2.06998,-1.50225 0,-0.82623 2.32874,-5.92703 5.17501,-11.33512 9.14111,-17.36898 4.09432,-30.63237 -11.65585,-30.63237 -16.20761,0 -22.24802,13.78549 -12.91335,29.47095 2.64055,4.43704 5.09411,9.40191 5.45238,11.03305 1.81075,8.24432 4.62686,3.47743 4.62686,-7.83195 z m 3.38689,-51.30195 c 0,-2.56161 0.20179,-3.60954 0.44853,-2.32873 0.24671,1.28079 0.24671,3.37666 0,4.65746 -0.24669,1.28082 -0.44853,0.23287 -0.44853,-2.32873 z m -29.12907,-41.64762 c 1.6555,-3.09334 -2.05358,-6.66861 -5.18152,-4.99459 -2.65892,1.42302 -2.93039,5.76366 -0.44735,7.15323 2.22449,1.24488 4.21611,0.4811 5.62887,-2.15864 z m 70.29939,0.14982 c 2.18611,-4.08476 -4.89386,-7.46487 -7.5403,-3.59993 -1.17005,1.70869 -0.96079,2.49434 1.25445,4.7095 2.27198,2.27205 4.70601,1.84242 6.28585,-1.10957 z m -24.37482,-1.97194 c 0,-1.30221 -2.62791,-1.59844 -16.30116,-1.83751 -15.83837,-0.27694 -16.30113,-0.22478 -16.30113,1.83751 0,2.0623 0.46276,2.11447 16.30113,1.83753 13.67325,-0.23909 16.30116,-0.53531 16.30116,-1.83753 z m -500.4195,205.87279 c -9.72597,-6.98182 -11.9677,-9.70312 -8.94781,-10.86197 2.14506,-0.82313 21.36773,12.80254 21.36773,15.14618 0,3.59446 -2.78093,2.63521 -12.41992,-4.28421 z m 575.45653,1.78043 c 0,-4.92029 0.79254,-6.22359 2.96728,-4.87953 2.03711,1.25894 1.09257,8.78246 -1.15598,9.20859 -1.50821,0.28581 -1.8113,-0.43849 -1.8113,-4.32906 z m 0,-19.87774 c 0,-7.89263 0.20016,-8.83508 1.8113,-8.52724 2.99388,0.57206 3.28456,17.40059 0.30057,17.40059 -1.96155,0 -2.11187,-0.63138 -2.11187,-8.87335 z M 732.74405,314.60454 c -1.89902,-4.95608 0.0842,-102.79965 2.08379,-102.79965 3.03861,0 3.29281,103.23555 0.25562,103.82046 -0.99791,0.19225 -2.05063,-0.26719 -2.33941,-1.02081 z M 699.14914,303.40185 C 694.4608,286.00664 679.6141,270.94891 661.34327,265.05862 l -4.13997,-1.33467 3.62248,-1.56082 c 20.31676,-8.75392 40.20457,6.16188 41.18519,30.88877 0.48838,12.31486 -0.93999,17.48059 -2.86183,10.34995 z M 62.933541,298.63992 c -0.846078,-2.20484 1.392453,-3.4828 6.134507,-3.50216 4.178089,-0.0166 4.118484,0.0906 4.302106,-7.77833 0.08102,-3.46989 0.473531,-4.19349 2.425364,-4.4707 3.86959,-0.54955 3.561938,14.92051 -0.326136,16.39875 -4.349658,1.65374 -11.800447,1.26886 -12.535841,-0.64756 z m 32.268095,0.659 c -7.465498,-3.12594 -9.420929,-13.02772 -3.702088,-18.74654 6.626898,-6.6269 18.709512,-2.24911 18.709512,6.77885 0,8.77749 -7.79007,14.98972 -15.007424,11.96769 z m 7.762464,-6.24702 c 4.1306,-4.13061 1.95385,-10.34993 -3.622485,-10.34993 -5.693231,0 -8.05946,7.53966 -3.392191,10.80874 3.040115,2.12937 4.523536,2.03235 7.014676,-0.45881 z m 853.99607,-2.35785 c -0.80705,-0.80707 -1.16113,-10.72366 -1.16113,-32.52143 V 226.8123 h -4.65748 c -5.58408,0 -5.68394,-0.62773 -1.1481,-7.22159 8.55074,-12.43065 7.69892,-12.30407 14.6213,-2.17285 5.73851,8.39861 5.72889,11.04509 -0.0367,10.10945 l -3.60417,-0.58487 v 31.90901 c 0,32.76125 -0.34647,35.50997 -4.01386,31.8426 z M 206.87693,275.19826 c -2.6951,-8.24658 1.14056,-18.87794 8.17961,-22.67163 1.55262,-0.83681 1.45146,-0.34345 -0.6031,2.94126 -3.54241,5.66339 -4.88496,10.20393 -4.88496,16.52109 0,5.70521 -1.34986,7.31471 -2.69155,3.20928 z m 783.00488,-10.69544 c -1.7103,-2.06083 -0.0691,-5.08821 2.75812,-5.08821 2.32069,0 3.16307,3.11554 1.41263,5.22468 -1.5962,1.92328 -2.48545,1.89417 -4.17075,-0.13647 z M 656.0755,258.12087 c 1.54372,-4.95587 2.63345,-17.83856 2.01752,-23.85048 l -0.69313,-6.76525 2.29117,1.6048 c 6.53811,4.57947 9.54547,12.57363 7.01156,18.63813 -2.64549,6.33154 -12.3052,15.76009 -10.62712,10.3728 z m 109.7551,-19.35909 c -4.67581,-4.67583 -2.45132,-11.92833 4.16825,-13.58974 4.89131,-1.22764 10.79367,4.99856 9.15046,9.65247 -2.26638,6.41888 -8.88153,8.37444 -13.31871,3.93727 z m -604.20354,-5.25935 c -12.25206,-8.92435 -11.97305,-8.8753 -48.54685,-8.53454 -45.193466,0.42105 -42.200926,3.77645 -42.200926,-47.31779 0,-52.38378 -7.391454,-47.09222 65.780226,-47.09222 H 192.363 l 3.42304,2.32873 c 6.44923,4.38749 6.53748,4.99809 6.53748,45.23006 0,46.50657 -0.0467,46.62564 -18.25199,46.62564 h -9.69285 l -0.0145,5.43372 c -0.0313,12.03068 -0.58796,12.17605 -12.73748,3.3264 z m 6.54166,-8.76012 v -5.17498 h 11.46454 c 11.29137,0 11.51025,-0.0456 14.48993,-3.02536 l 3.02535,-3.02535 -0.005,-35.01065 c -0.005,-38.43132 -0.48432,-41.54716 -6.44962,-41.86173 -25.73268,-1.35702 -109.211974,0.54422 -111.243295,2.53355 -2.1639,2.11918 -3.141027,31.71294 -2.401929,72.74473 0.02164,1.20317 1.267283,3.41547 2.768045,4.91621 l 2.728606,2.7286 h 34.395693 34.3957 l 7.63916,5.09533 c 9.4798,6.32301 9.19167,6.32052 9.19167,0.0796 z m 601.76988,-5.52518 c -1.57224,-4.0972 0.081,-17.76218 2.14902,-17.76218 2.17513,0 3.55417,11.0149 2.10296,16.79701 -0.64295,2.56172 -3.39924,3.18738 -4.25198,0.96517 z m -376.88838,-12.10263 -12.59151,-11.41785 -6.67666,4.57104 c -32.37936,22.16779 -73.01668,-6.14235 -62.30562,-43.40542 14.13793,-49.1849 88.15452,-30.76618 78.21085,19.46246 l -1.28685,6.50035 10.20219,9.55803 c 5.61118,5.25691 10.80199,9.34007 11.53507,9.07364 0.73312,-0.26642 1.58472,0.32281 1.89243,1.30938 0.30774,0.98661 1.202,2.99688 1.98728,4.46727 1.35609,2.53928 1.20718,2.88994 -2.96659,6.98622 -5.46634,5.36479 -3.31045,6.21576 -18.00059,-7.10512 z m 14.20207,2.88708 c 0,-1.94743 -15.46844,-16.46614 -16.71948,-15.69294 -1.05352,0.65109 14.25498,16.97876 15.91896,16.97876 0.44028,0 0.80052,-0.57861 0.80052,-1.28582 z m -25.19393,-24.12419 c 0.7502,-1.955 -2.60982,-5.71548 -7.42276,-8.30743 -5.52833,-2.97719 -5.51157,-0.87272 0.038,4.76146 5.47038,5.55391 6.43637,6.01773 7.38487,3.54597 z m -55.73961,-12.50485 c 0.31657,-2.20805 -2.21116,-4.03337 -4.02935,-2.90966 -1.11254,0.68758 -1.25358,3.94274 -0.2158,4.98052 1.36729,1.3673 3.93156,0.11641 4.24515,-2.07086 z m 31.25385,-0.18822 c 0,-0.46381 -1.66039,-1.63508 -3.68976,-2.60281 -3.04027,-1.44982 -3.63235,-2.23944 -3.36373,-4.48603 0.52421,-4.3841 3.27559,-5.37458 7.09193,-2.55304 3.76407,2.7829 5.0174,2.22797 3.09228,-1.36915 -3.19749,-5.97459 -12.60495,-3.4761 -13.29593,3.53121 -0.42438,4.30371 3.07227,8.32313 7.24063,8.32313 1.60851,0 2.92458,-0.37949 2.92458,-0.84331 z m -33.11981,-7.43665 c 0,-0.56925 -0.46574,-1.03499 -1.03498,-1.03499 -0.56925,0 -1.03501,0.46574 -1.03501,1.03499 0,0.56924 0.46576,1.035 1.03501,1.035 0.56924,0 1.03498,-0.46576 1.03498,-1.035 z m 5.12813,-10.60869 c 4.6358,-7.23755 5.0954,-9.5321 2.21777,-11.07217 -4.35375,-2.33003 -13.76288,11.99768 -10.47815,15.95555 2.29642,2.76702 4.00839,1.75494 8.26038,-4.88338 z m 402.78556,44.47559 c -0.63862,-0.6386 -1.16111,-3.83648 -1.16111,-7.10636 0,-10.40413 -1.95042,-11.6766 -18.53779,-12.09413 l -13.54701,-0.34099 v 9.46916 c 0,14.3786 -4.48096,14.15396 -4.95654,-0.24848 l -0.29903,-9.05618 h -33.52964 c -41.43572,0 -43.46231,-0.68439 -43.46231,-14.67731 0,-13.03328 4.70151,-15.33377 31.34209,-15.33591 24.97129,-0.001 29.11189,-2.14329 26.06011,-13.47676 -1.8486,-6.86517 -0.1176,-6.65316 -58.9892,-7.22472 l -53.30217,-0.5175 -0.33075,-2.32874 -0.33073,-2.32873 h 53.41542 c 61.53694,0 59.78884,-0.24669 63.88588,9.01534 7.07323,15.99021 -1.33281,22.03447 -30.64439,22.03447 -24.29954,0 -25.9658,0.66429 -25.9658,10.35177 0,9.50566 -0.79338,9.31312 38.37444,9.31312 h 33.48761 l 0.29375,-11.12619 c 0.46587,-17.64408 4.95126,-17.9437 4.95126,-0.33073 v 11.45692 l 12.16116,0.0227 c 19.49958,0.0365 25.087,3.9819 25.09473,17.72017 0.005,7.00034 -1.41289,9.40616 -4.00998,6.80905 z m 37.82366,-16.962 c -1.04371,-1.04372 -0.79569,-81.37506 0.25638,-83.036569 3.7733,-5.959151 4.22858,-1.461194 4.22858,41.776829 0,44.03227 -0.16798,45.57681 -4.48496,41.25974 z m 186.23713,-10.26209 c -2.57797,-6.71815 0.10865,-22.71839 3.46635,-20.64324 2.19407,1.35596 1.36864,22.28039 -0.87886,22.28039 -1.07762,0 -2.24199,-0.73673 -2.58749,-1.63715 z m 25.45358,-7.8848 c -3.06585,-3.06591 0.13467,-7.60015 3.75335,-5.3175 2.35305,1.48428 2.56013,2.99614 0.66942,4.88688 -1.99881,1.99882 -2.77858,2.07474 -4.42277,0.43062 z m -418.92834,-1.14519 c -1.1874,-3.0943 0.61817,-3.82278 9.47487,-3.82278 8.17111,0 11.80164,1.38721 9.54263,3.64621 -1.57006,1.57008 -18.42272,1.72655 -19.0175,0.17658 z m -85.32063,-1.23529 c 0,-0.86251 0.91999,-1.55249 2.06999,-1.55249 1.14998,0 2.06999,0.68998 2.06999,1.55249 0,0.86249 -0.92001,1.55247 -2.06999,1.55247 -1.15,0 -2.06999,-0.68998 -2.06999,-1.55247 z m 16.5599,-0.5175 c 0,-1.794 0.69,-2.06999 5.17496,-2.06999 4.48498,0 5.17497,0.27599 5.17497,2.06999 0,1.79399 -0.68999,2.06997 -5.17497,2.06997 -4.48496,0 -5.17496,-0.27598 -5.17496,-2.06997 z m 25.87483,0 c 0,-1.9426 0.68473,-2.06902 11.12621,-2.05414 11.10812,0.0157 14.61047,0.80072 13.26768,2.97342 -1.45721,2.3578 -24.39389,1.49343 -24.39389,-0.91928 z M 245.79325,148.01817 v -5.30957 l -4.65745,0.52495 c -4.36103,0.49156 -4.65749,0.36838 -4.65749,-1.93537 0,-2.22597 0.44369,-2.46036 4.65749,-2.46036 h 4.65745 v -5.17495 c 0,-4.82998 0.17257,-5.17497 2.58748,-5.17497 2.41499,0 2.58749,0.34499 2.58749,5.17497 v 5.17495 h 4.65749 c 3.96745,0 4.65746,0.30668 4.65746,2.07 0,1.76333 -0.69001,2.06998 -4.65746,2.06998 h -4.65749 v 5.17497 c 0,4.82998 -0.17256,5.17497 -2.58749,5.17497 -2.42372,0 -2.58748,-0.33602 -2.58748,-5.30957 z m 711.04074,-24.70528 c 0,-23.11485 0.0595,-23.804856 2.07006,-23.804856 2.00991,0 2.06999,0.690006 2.06999,23.804856 0,23.11487 -0.0595,23.80487 -2.06999,23.80487 -2.01007,0 -2.07006,-0.69 -2.07006,-23.80487 z m -447.8181,4.55302 c -1.16471,-3.03516 2.09136,-3.48621 25.2819,-3.50217 l 23.0286,-0.0158 v 2.58749 2.58748 h -23.83732 c -20.90186,0 -23.91564,-0.20404 -24.47318,-1.65695 z m -31.38401,-3.92228 c 0,-1.57156 6.47407,-2.78182 8.42637,-1.57523 2.16212,1.33626 -0.2582,3.01449 -4.34748,3.01449 -2.79307,0 -4.07889,-0.45372 -4.07889,-1.43926 z"
       id="path17" /><g
       id="g1"
       transform="matrix(0.49818032,0,0,0.49818032,645.49359,139.49515)" /></g></svg>
