<svg xmlns="http://www.w3.org/2000/svg" class="d-none">
  <symbol id="github" viewBox="0 0 16 16">
    <path
      d="M8 0C3.58 0 0 3.58 0 8c0 3.54 2.29 6.53 5.47 7.59.4.07.55-.17.55-.38 0-.19-.01-.82-.01-1.49-2.01.37-2.53-.49-2.69-.94-.09-.23-.48-.94-.82-1.13-.28-.15-.68-.52-.01-.53.63-.01 1.08.58 1.23.82.72 1.21 1.87.87 2.33.66.07-.52.28-.87.51-1.07-1.78-.2-3.64-.89-3.64-3.95 0-.87.31-1.59.82-2.15-.08-.2-.36-1.02.08-2.12 0 0 .67-.21 2.2.82.64-.18 1.32-.27 2-.27s1.36.09 2 .27c1.53-1.04 2.2-.82 2.2-.82.44 1.1.16 1.92.08 2.12.51.56.82 1.27.82 2.15 0 3.07-1.87 3.75-3.65 3.95.29.25.54.73.54 1.48 0 1.07-.01 1.93-.01 2.2 0 .21.15.46.55.38A8.01 8.01 0 0 0 16 8c0-4.42-3.58-8-8-8" />
  </symbol>
  <symbol id="linkedin" viewBox="0 0 16 16">
    <path
      d="M0 1.146C0 .513.526 0 1.175 0h13.65C15.474 0 16 .513 16 1.146v13.708c0 .633-.526 1.146-1.175 1.146H1.175C.526 16 0 15.487 0 14.854zm4.943 12.248V6.169H2.542v7.225zm-1.2-8.212c.837 0 1.358-.554 1.358-1.248-.015-.709-.52-1.248-1.342-1.248S2.4 3.226 2.4 3.934c0 .694.521 1.248 1.327 1.248zm4.908 8.212V9.359c0-.216.016-.432.08-.586.173-.431.568-.878 1.232-.878.869 0 1.216.662 1.216 1.634v3.865h2.401V9.25c0-2.22-1.184-3.252-2.764-3.252-1.274 0-1.845.7-2.165 1.193v.025h-.016l.016-.025V6.169h-2.4c.03.678 0 7.225 0 7.225z" />
  </symbol>
  <symbol id="stackoverflow" viewBox="0 0 16 16">
    <path d="M12.412 14.572V10.29h1.428V16H1v-5.71h1.428v4.282z" />
    <path
      d="M3.857 13.145h7.137v-1.428H3.857zM10.254 0 9.108.852l4.26 5.727 1.146-.852zm-3.54 3.377 5.484 4.567.913-1.097L7.627 2.28l-.914 1.097zM4.922 6.55l6.47 3.013.603-1.294-6.47-3.013zm-.925 3.344 6.985 1.469.294-1.398-6.985-1.468z" />
  </symbol>
  <symbol id="facebook" viewBox="0 0 16 16">
    <path
      d="M16 8.049c0-4.446-3.582-8.05-8-8.05C3.58 0-.002 3.603-.002 8.05c0 4.017 2.926 7.347 6.75 7.951v-5.625h-2.03V8.05H6.75V6.275c0-2.017 1.195-3.131 3.022-3.131.876 0 1.791.157 1.791.157v1.98h-1.009c-.993 0-1.303.621-1.303 1.258v1.51h2.218l-.354 2.326H9.25V16c3.824-.604 6.75-3.934 6.75-7.951z" />
  </symbol>
  <symbol id="instagram" viewBox="0 0 16 16">
    <path
      d="M8 0C5.829 0 5.556.01 4.703.048 3.85.088 3.269.222 2.76.42a3.917 3.917 0 0 0-1.417.923A3.927 3.927 0 0 0 .42 2.76C.222 3.268.087 3.85.048 4.7.01 5.555 0 5.827 0 8.001c0 2.172.01 2.444.048 3.297.04.852.174 1.433.372 1.942.205.526.478.972.923 1.417.444.445.89.719 1.416.923.51.198 1.09.333 1.942.372C5.555 15.99 5.827 16 8 16s2.444-.01 3.298-.048c.851-.04 1.434-.174 1.943-.372a3.916 3.916 0 0 0 1.416-.923c.445-.445.718-.891.923-1.417.197-.509.332-1.09.372-1.942C15.99 10.445 16 10.173 16 8s-.01-2.445-.048-3.299c-.04-.851-.175-1.433-.372-1.941a3.926 3.926 0 0 0-.923-1.417A3.911 3.911 0 0 0 13.24.42c-.51-.198-1.092-.333-1.943-.372C10.443.01 10.172 0 7.998 0h.003zm-.717 1.442h.718c2.136 0 2.389.007 3.232.046.78.035 1.204.166 1.486.275.373.145.64.319.92.599.28.28.453.546.598.92.11.281.24.705.275 1.485.039.843.047 1.096.047 3.231s-.008 2.389-.047 3.232c-.035.78-.166 1.203-.275 1.485a2.47 2.47 0 0 1-.599.919c-.28.28-.546.453-.92.598-.28.11-.704.24-1.485.276-.843.038-1.096.047-3.232.047s-2.39-.009-3.233-.047c-.78-.036-1.203-.166-1.485-.276a2.478 2.478 0 0 1-.92-.598 2.48 2.48 0 0 1-.6-.92c-.109-.281-.24-.705-.275-1.485-.038-.843-.046-1.096-.046-3.233 0-2.136.008-2.388.046-3.231.036-.78.166-1.204.276-1.486.145-.373.319-.64.599-.92.28-.28.546-.453.92-.598.282-.11.705-.24 1.485-.276.738-.034 1.024-.044 2.515-.045v.002zm4.988 1.328a.96.96 0 1 0 0 1.92.96.96 0 0 0 0-1.92zm-4.27 1.122a4.109 4.109 0 1 0 0 8.217 4.109 4.109 0 0 0 0-8.217zm0 1.441a2.667 2.667 0 1 1 0 5.334 2.667 2.667 0 0 1 0-5.334z" />
  </symbol>
  <symbol id="threads" viewBox="0 0 16 16">
    <path
      d="M6.321 6.016c-.27-.18-1.166-.802-1.166-.802.756-1.081 1.753-1.502 3.132-1.502.975 0 1.803.327 2.394.948s.928 1.509 1.005 2.644q.492.207.905.484c1.109.745 1.719 1.86 1.719 3.137 0 2.716-2.226 5.075-6.256 5.075C4.594 16 1 13.987 1 7.994 1 2.034 4.482 0 8.044 0 9.69 0 13.55.243 15 5.036l-1.36.353C12.516 1.974 10.163 1.43 8.006 1.43c-3.565 0-5.582 2.171-5.582 6.79 0 4.143 2.254 6.343 5.63 6.343 2.777 0 4.847-1.443 4.847-3.556 0-1.438-1.208-2.127-1.27-2.127-.236 1.234-.868 3.31-3.644 3.31-1.618 0-3.013-1.118-3.013-2.582 0-2.09 1.984-2.847 3.55-2.847.586 0 1.294.04 1.663.114 0-.637-.54-1.728-1.9-1.728-1.25 0-1.566.405-1.967.868ZM8.716 8.19c-2.04 0-2.304.87-2.304 1.416 0 .878 1.043 1.168 1.6 1.168 1.02 0 2.067-.282 2.232-2.423a6.2 6.2 0 0 0-1.528-.161" />
  </symbol>
  <symbol id="twitter" viewBox="0 0 16 16">
    <path
      d="M5.026 15c6.038 0 9.341-5.003 9.341-9.334 0-.14 0-.282-.006-.422A6.685 6.685 0 0 0 16 3.542a6.658 6.658 0 0 1-1.889.518 3.301 3.301 0 0 0 1.447-1.817 6.533 6.533 0 0 1-2.087.793A3.286 3.286 0 0 0 7.875 6.03a9.325 9.325 0 0 1-6.767-3.429 3.289 3.289 0 0 0 1.018 4.382A3.323 3.323 0 0 1 .64 6.575v.045a3.288 3.288 0 0 0 2.632 3.218 3.203 3.203 0 0 1-.865.115 3.23 3.23 0 0 1-.614-.057 3.283 3.283 0 0 0 3.067 2.277A6.588 6.588 0 0 1 .78 13.58a6.32 6.32 0 0 1-.78-.045A9.344 9.344 0 0 0 5.026 15z" />
  </symbol>
  <symbol id="telegram" viewBox="0 0 16 16">
    <path
      d="M16 8A8 8 0 1 1 0 8a8 8 0 0 1 16 0M8.287 5.906q-1.168.486-4.666 2.01-.567.225-.595.442c-.03.243.275.339.69.47l.175.055c.408.133.958.288 1.243.294q.39.01.868-.32 3.269-2.206 3.374-2.23c.05-.012.12-.026.166.016s.042.12.037.141c-.03.129-1.227 1.241-1.846 1.817-.193.18-.33.307-.358.336a8 8 0 0 1-.188.186c-.38.366-.664.64.015 1.088.327.216.589.393.85.571.284.194.568.387.936.629q.14.092.27.187c.331.236.63.448.997.414.214-.02.435-.22.547-.82.265-1.417.786-4.486.906-5.751a1.4 1.4 0 0 0-.013-.315.34.34 0 0 0-.114-.217.53.53 0 0 0-.31-.093c-.3.005-.763.166-2.984 1.09" />
  </symbol>
  <symbol id="youtube" viewBox="0 0 16 16">
    <path
      d="M8.051 1.999h.089c.822.003 4.987.033 6.11.335a2.01 2.01 0 0 1 1.415 1.42c.101.38.172.883.22 1.402l.01.104.022.26.008.104c.065.914.073 1.77.074 1.957v.075c-.001.194-.01 1.108-.082 2.06l-.008.105-.009.104c-.05.572-.124 1.14-.235 1.558a2.01 2.01 0 0 1-1.415 1.42c-1.16.312-5.569.334-6.18.335h-.142c-.309 0-1.587-.006-2.927-.052l-.17-.006-.087-.004-.171-.007-.171-.007c-1.11-.049-2.167-.128-2.654-.26a2.01 2.01 0 0 1-1.415-1.419c-.111-.417-.185-.986-.235-1.558L.09 9.82l-.008-.104A31 31 0 0 1 0 7.68v-.123c.002-.215.01-.958.064-1.778l.007-.103.003-.052.008-.104.022-.26.01-.104c.048-.519.119-1.023.22-1.402a2.01 2.01 0 0 1 1.415-1.42c.487-.13 1.544-.21 2.654-.26l.17-.007.172-.006.086-.003.171-.007A100 100 0 0 1 7.858 2zM6.4 5.209v4.818l4.157-2.408z" />
  </symbol>

  <symbol id="skype" viewBox="0 0 16 16">
  <path d="M4.671 0c.88 0 1.733.247 2.468.702a7.42 7.42 0 0 1 6.02 2.118 7.37 7.37 0 0 1 2.167 5.215q0 .517-.072 1.026a4.66 4.66 0 0 1 .6 2.281 4.64 4.64 0 0 1-1.37 3.294A4.67 4.67 0 0 1 11.18 16c-.84 0-1.658-.226-2.37-.644a7.42 7.42 0 0 1-6.114-2.107A7.37 7.37 0 0 1 .529 8.035q0-.545.08-1.081a4.644 4.644 0 0 1 .76-5.59A4.68 4.68 0 0 1 4.67 0zm.447 7.01c.18.309.43.572.729.769a7 7 0 0 0 1.257.653q.737.308 1.145.523c.229.112.437.264.615.448.135.142.21.331.21.528a.87.87 0 0 1-.335.723c-.291.196-.64.289-.99.264a2.6 2.6 0 0 1-1.048-.206 11 11 0 0 1-.532-.253 1.3 1.3 0 0 0-.587-.15.72.72 0 0 0-.501.176.63.63 0 0 0-.195.491.8.8 0 0 0 .148.482 1.2 1.2 0 0 0 .456.354 5.1 5.1 0 0 0 2.212.419 4.6 4.6 0 0 0 1.624-.265 2.3 2.3 0 0 0 1.08-.801c.267-.39.402-.855.386-1.327a2.1 2.1 0 0 0-.279-1.101 2.5 2.5 0 0 0-.772-.792A7 7 0 0 0 8.486 7.3a1 1 0 0 0-.145-.058 18 18 0 0 1-1.013-.447 1.8 1.8 0 0 1-.54-.387.73.73 0 0 1-.2-.508.8.8 0 0 1 .385-.723 1.76 1.76 0 0 1 .968-.247c.26-.003.52.03.772.096q.412.119.802.293c.105.049.22.075.336.076a.6.6 0 0 0 .453-.19.7.7 0 0 0 .18-.496.72.72 0 0 0-.17-.476 1.4 1.4 0 0 0-.556-.354 3.7 3.7 0 0 0-.708-.183 6 6 0 0 0-1.022-.078 4.5 4.5 0 0 0-1.536.258 2.7 2.7 0 0 0-1.174.784 1.9 1.9 0 0 0-.45 1.287c-.01.37.076.736.25 1.063"/>
</symbol>

<symbol id="email" viewBox="0 0 16 16">
    <path d="M.05 3.555A2 2 0 0 1 2 2h12a2 2 0 0 1 1.95 1.555L8 8.414zM0 4.697v7.104l5.803-3.558zM6.761 8.83l-6.57 4.027A2 2 0 0 0 2 14h12a2 2 0 0 0 1.808-1.144l-6.57-4.027L8 9.586zm3.436-.586L16 11.801V4.697z"/>
</symbol>

<symbol id="wechat" viewBox="0 0 16 16">
  <path d="M11.176 14.429c-2.665 0-4.826-1.8-4.826-4.018 0-2.22 2.159-4.02 4.824-4.02S16 8.191 16 10.411c0 1.21-.65 2.301-1.666 3.036a.32.32 0 0 0-.12.366l.218.81a.6.6 0 0 1 .029.117.166.166 0 0 1-.162.162.2.2 0 0 1-.092-.03l-1.057-.61a.5.5 0 0 0-.256-.074.5.5 0 0 0-.142.021 5.7 5.7 0 0 1-1.576.22M9.064 9.542a.647.647 0 1 0 .557-1 .645.645 0 0 0-.646.647.6.6 0 0 0 .09.353Zm3.232.001a.646.646 0 1 0 .546-1 .645.645 0 0 0-.644.644.63.63 0 0 0 .098.356"/>
  <path d="M0 6.826c0 1.455.781 2.765 2.001 3.656a.385.385 0 0 1 .143.439l-.161.6-.1.373a.5.5 0 0 0-.032.14.19.19 0 0 0 .193.193q.06 0 .111-.029l1.268-.733a.6.6 0 0 1 .308-.088q.088 0 .171.025a6.8 6.8 0 0 0 1.625.26 4.5 4.5 0 0 1-.177-1.251c0-2.936 2.785-5.02 5.824-5.02l.15.002C10.587 3.429 8.392 2 5.796 2 2.596 2 0 4.16 0 6.826m4.632-1.555a.77.77 0 1 1-1.54 0 .77.77 0 0 1 1.54 0m3.875 0a.77.77 0 1 1-1.54 0 .77.77 0 0 1 1.54 0"/>
</symbol>

</svg>