<?xml version="1.0" encoding="UTF-8" standalone="no"?>
<!-- Created with Inkscape (http://www.inkscape.org/) -->

<svg
   width="512"
   height="512"
   viewBox="0 0 512 512"
   version="1.1"
   id="svg1"
   xml:space="preserve"
   sodipodi:docname="favicon.svg"
   inkscape:version="1.3.2 (091e20e, 2023-11-25)"
   xmlns:inkscape="http://www.inkscape.org/namespaces/inkscape"
   xmlns:sodipodi="http://sodipodi.sourceforge.net/DTD/sodipodi-0.dtd"
   xmlns="http://www.w3.org/2000/svg"
   xmlns:svg="http://www.w3.org/2000/svg"><sodipodi:namedview
     id="namedview1"
     pagecolor="#ffffff"
     bordercolor="#000000"
     borderopacity="0.25"
     inkscape:showpageshadow="2"
     inkscape:pageopacity="0.0"
     inkscape:pagecheckerboard="0"
     inkscape:deskcolor="#d1d1d1"
     inkscape:zoom="0.97460938"
     inkscape:cx="256"
     inkscape:cy="256"
     inkscape:window-width="1366"
     inkscape:window-height="699"
     inkscape:window-x="0"
     inkscape:window-y="32"
     inkscape:window-maximized="1"
     inkscape:current-layer="layer1" /><defs
     id="defs1"><linearGradient
       id="swatch2"><stop
         style="stop-color:#003399;stop-opacity:0;"
         offset="0"
         id="stop2" /></linearGradient></defs><g
     id="layer1"><path
       d="M 256,0.63867187 A 255.36217,255.36217 0 0 0 0.63867187,256 255.36217,255.36217 0 0 0 256,511.36133 255.36217,255.36217 0 0 0 511.36133,256 255.36217,255.36217 0 0 0 256,0.63867187 Z"
       style="opacity:1;fill:#eaeaea;fill-opacity:1;fill-rule:evenodd;stroke:#6699ff;stroke-width:1.276"
       id="path3" /><path
       style="fill:#000000;stroke:none;stroke-width:0.624524;fill-opacity:1"
       d="M 79.260129,400.62302 H 191.04965 c 0,-17.16864 -0.56091,-32.82981 11.42885,-46.83918 14.96527,-17.48606 34.96842,-16.8621 56.01959,-16.8621 17.12744,0 33.90494,0.58822 46.73318,13.79537 13.77373,14.18059 13.84551,31.4625 13.84551,49.90591 h 113.66309 l -11.85919,-28.72803 -27.84327,-65.57486 -74.0546,-176.11535 -24.35588,-58.080591 -6.51125,-15.613062 -3.16839,-6.227892 -8.96257,-0.641865 h -21.85829 c 0,12.383151 1.91688,26.528489 -0.20528,38.720409 -1.1731,6.73953 -5.30354,13.675601 -7.90676,19.984711 -4.79445,11.61969 -9.17421,23.41132 -14.10765,34.97326 -13.40601,31.4179 -25.40747,63.43124 -38.62402,94.92742 -2.5278,6.02392 -5.05235,12.04509 -7.47886,18.11115 -0.95246,2.38107 -1.72273,6.04149 -3.7587,7.74197 -2.04915,1.71148 -5.96134,1.04226 -8.48212,1.72514 -7.25544,1.96547 -12.3138,7.96516 -12.49046,15.51381 h -4.37167 l 20.23242,-48.71276 52.58903,-128.02712 22.7305,-54.95799 h -19.98471 c -2.28349,0 -5.86257,-0.654445 -7.87304,0.641865 -4.72918,3.049277 -7.26628,16.084467 -9.43626,21.216434 -8.49444,20.08905 -16.8016,40.328211 -24.90862,60.578681 -24.02469,60.01115 -49.19626,119.63219 -74.2083,179.23796 -12.34345,29.41541 -26.695565,58.97513 -36.581802,89.30671 m 199.222692,-299.77079 50.49285,119.90831 25.69888,60.5787 h -5.6207 c -0.88475,-6.53822 -5.06167,-12.30638 -11.24139,-14.923 -4.39782,-1.86212 -8.74397,-0.0903 -10.97589,-5.06463 -16.30741,-36.34444 -31.08439,-73.59433 -45.98097,-110.53759 -5.76234,-14.29052 -23.97791,-40.90477 -2.37278,-49.96179 m -23.73187,84.31052 c 7.54582,13.2593 12.28145,28.94524 17.98587,43.09207 1.66097,4.11919 3.84825,13.8675 7.75979,16.22023 3.49818,2.10411 12.27992,0.92623 16.09735,0.0174 l 8.74332,20.60924 h -99.29909 c 1.82986,-4.71646 4.4066,-16.40172 8.52407,-19.34285 4.6563,-3.32604 13.25155,2.68704 16.82308,-3.17654 10.60253,-17.40691 12.12017,-40.48513 23.36561,-57.4195 m 103.67074,104.29525 27.1195,63.07678 9.72734,24.35638 c -2.58521,0 -6.86663,0.81236 -9.12206,-0.64186 -3.96703,-2.55787 -6.38528,-13.14864 -8.11499,-17.4693 -4.34981,-10.86548 -9.55236,-21.48504 -13.55493,-32.47515 -2.40106,-6.59284 -2.93864,-13.32714 -9.17797,-17.70589 -4.67847,-3.28333 -10.81242,-2.90337 -16.23708,-2.90337 H 309.08442 191.04965 c -14.31377,0 -41.57949,-5.23838 -44.96561,14.36402 l -6.24522,0.62452 9.37458,-23.10733 4.49839,-7.74196 17.35315,-0.37684 h 41.84301 145.51374 m -214.21122,42.46753 -12.36564,31.85066 -5.38266,12.11362 -10.35521,1.00135 c 4.14724,-10.68956 8.69839,-21.31 13.20893,-31.85065 1.56543,-3.65825 2.90127,-10.05928 5.92526,-12.73815 2.16334,-1.9164 6.4496,-0.97672 8.96932,-0.37683 m 38.72041,0 -12.99019,32.47517 -5.38216,11.8486 -17.84996,0.64186 c 2.55774,-11.05066 8.40534,-22.05444 12.85185,-32.47518 1.36556,-3.20029 2.73052,-9.79474 5.65781,-11.84858 3.55149,-2.49176 13.42799,-0.64187 17.71265,-0.64187 m 181.73604,44.96563 c -4.4907,0 -15.26752,1.99668 -18.95494,-0.64186 -2.81392,-2.01354 -3.9793,-8.72911 -5.30797,-11.8486 -4.54654,-10.67451 -9.49096,-21.48663 -13.20844,-32.47517 4.37032,0 14.73449,-1.92647 18.33039,0.64187 2.86315,2.04499 4.31377,8.68298 5.66455,11.84858 4.57406,10.71966 9.74071,21.43266 13.47641,32.47518 z"
       id="path1" /></g></svg>
